<?xml version="1.0" encoding="UTF-8"?>
<svg id="a" data-name="Layer 1" xmlns="http://www.w3.org/2000/svg" viewBox="0 0 1999.49 2523.43">
  <defs>
    <style>
      .b {
        fill: #494647;
      }
    </style>
  </defs>
  <g>
    <path class="b" d="M499.44,2185.92v20.04h-6.02v-60.22h26.93c26.93,0,26.93,40.09,0,40.17h-20.9ZM499.44,2180.24h20.9c18.84,0,18.84-28.82,0-28.82h-20.9v28.82Z"/>
    <path class="b" d="M628.71,2205.96v-26.67h-36.48v26.67h-6.02v-60.22h6.02v27.87h36.48v-27.87h6.02v60.22h-6.02Z"/>
    <path class="b" d="M742.93,2176.02c-.09,15.74-10.06,31.06-30.45,31.06s-30.54-15.31-30.54-31.14c0-16.95,11.01-31.23,30.54-31.23,20.39.08,30.54,15.23,30.45,31.31ZM712.48,2201.4c16.43,0,24.35-12.47,24.43-25.38,0-13.51-8-25.55-24.43-25.63-16.17,0-24.69,11.44-24.52,25.63.17,13.16,8.09,25.38,24.52,25.38Z"/>
    <path class="b" d="M801.92,2151.42h-21.25v-5.68h48.52v5.68h-21.25v54.54h-6.02v-54.54Z"/>
    <path class="b" d="M927.85,2176.02c-.09,15.74-10.06,31.06-30.45,31.06s-30.54-15.31-30.54-31.14c0-16.95,11.01-31.23,30.54-31.23,20.39.08,30.54,15.23,30.45,31.31ZM897.39,2201.4c16.43,0,24.35-12.47,24.43-25.38,0-13.51-8-25.55-24.43-25.63-16.17,0-24.69,11.44-24.52,25.63.17,13.16,8.09,25.38,24.52,25.38Z"/>
    <path class="b" d="M1020.99,2157.62c-4.9-4.91-12.04-7.23-18.49-7.23-16.43,0-25.29,12.22-25.21,25.72,0,13.16,8.34,24.86,25.21,24.86,6.02,0,12.3-2.07,17.29-6.54v-15.23h-19.7v-5.59h25.46v23.31c-6.19,6.37-13.68,9.89-23.06,9.89-20.99,0-31.23-14.37-31.23-30.63-.09-18.41,12.22-31.48,31.23-31.48,8,0,16,3.01,22.11,9.03l-3.61,3.87Z"/>
    <path class="b" d="M1123.08,2205.96h-7.83l-19.96-22.19h-15.57v22.19h-6.02v-60.22h27.01c13.42,0,19.87,8.95,19.96,19.1.08,9.38-5.42,17.89-18.15,18.49l20.56,22.63ZM1079.72,2151.42v26.67h20.65c9.64,0,14.28-5.68,14.28-13.25s-4.64-13.42-13.94-13.42h-20.99Z"/>
    <path class="b" d="M1209.95,2192.02h-34.93l-6.19,13.94h-6.37l27.02-60.22h6.02l27.02,60.22h-6.37l-6.19-13.94ZM1177.43,2186.52h30.11l-15.06-34.24-15.05,34.24Z"/>
    <path class="b" d="M1273.07,2185.92v20.04h-6.02v-60.22h26.93c26.92,0,26.92,40.09,0,40.17h-20.91ZM1273.07,2180.24h20.91c18.84,0,18.84-28.82,0-28.82h-20.91v28.82Z"/>
    <path class="b" d="M1402.35,2205.96v-26.67h-36.47v26.67h-6.02v-60.22h6.02v27.87h36.47v-27.87h6.02v60.22h-6.02Z"/>
    <path class="b" d="M1479.58,2175.85l19.44-30.11h7.06v.17l-23.48,35.78v24.26h-6.02v-24.26l-23.14-35.78v-.17h6.97l19.18,30.11Z"/>
  </g>
  <g>
    <g>
      <path class="b" d="M1015.91,1185.07c.03-.09.06-.18.09-.26.03-.09.05-.19.08-.29-.05.19-.11.36-.16.55Z"/>
      <path class="b" d="M1060.13,778.75s-.03.03-.05.05c0,0,0,0,0,0,.02-.02.04-.04.05-.06Z"/>
      <path class="b" d="M1064.68,757.14s-.03.09-.05.13c-.02.06-.03.13-.05.19.03-.11.07-.22.1-.32Z"/>
      <path class="b" d="M1060.53,752.95s.02-.06.03-.09c.02-.08.04-.15.07-.23-.03.11-.07.21-.1.31Z"/>
      <path class="b" d="M959.48,815.97s0,0,0,0c-.03-.06-.07-.13-.11-.19.04.07.07.13.11.2Z"/>
      <path class="b" d="M1068.07,647.78s0,.06,0,.09c0,.07,0,.14,0,.21,0-.1.01-.2.02-.3Z"/>
      <path class="b" d="M1005.39,742.34s0,.01,0,.02c0,.06,0,.12,0,.18,0-.07,0-.13,0-.2Z"/>
      <path class="b" d="M1094.03,604.6c-.47,1.87.7,3.93,2.61,4.37,1.9.44,3.88-.68,4.37-2.61.47-1.87-.7-3.93-2.61-4.37-1.9-.44-3.88.68-4.37,2.61Z"/>
      <path class="b" d="M1057.95,578.41c3.41.79,6.93-1.21,7.79-4.64.85-3.33-1.24-7-4.64-7.79-3.41-.79-6.93,1.21-7.79,4.64-.84,3.33,1.24,7,4.64,7.79Z"/>
      <polygon class="b" points="888.48 1177.49 888.48 1177.49 888.48 1177.5 888.48 1177.49"/>
      <path class="b" d="M1176.17,1330.38s0,.04,0,.06c0,.13-.01.26-.02.39,0-.15.02-.29.03-.44Z"/>
      <path class="b" d="M1175.85,1317.57c0,.06,0,.13.01.2,0,.07.02.14.02.21-.01-.13-.02-.27-.04-.41Z"/>
      <path class="b" d="M1134.5,1207.95s0,0,0,0h0s0-.01,0-.02h0Z"/>
      <path class="b" d="M1174.53,1342.91c.85-4.1,1.42-8.29,1.64-12.48.02-.48.05-.96.08-1.44.18-3.75-.07-7.5-.38-11.23-.33-3.93-.79-7.86-1.23-11.78-.93-8.34-1.92-16.67-3.36-24.94-.71-4.06-1.55-8.1-2.39-12.13-.84-4.04-1.69-8.08-2.6-12.1-.92-4.11-1.83-8.24-3.12-12.25-1.27-3.98-2.69-7.92-4.33-11.77-3.3-7.79-7-15.43-11.35-22.68-1.07-1.77-2.23-3.49-3.37-5.21-1.35-2.06-2.72-4.17-4.38-6-1.15-1.25-2.74-2.52-4.54-2.49-1.47.02-2.66,1-3.27,2.27-.85,1.81-1.18,3.86-1.42,5.84-.26,2.02-.43,4.06-.65,6.09-.22,2.04-.46,4.08-.69,6.12-.44,3.91-.85,7.83-1.52,11.73l.02-.08c0,.06-.02.12-.03.18h0c-.86,4.5-1.93,8.96-2.99,13.41-.55,2.3-1.1,4.61-1.68,6.9-.56,2.21-1.2,4.39-1.85,6.58v.02s-.01.03-.02.05h0s0,.04-.02.06c-1.31,3.87-2.73,7.68-4.3,11.47-1.56,3.81-3.17,7.59-4.68,11.42-1.44,3.68-2.61,7.45-3.67,11.25-1.08,3.84-2.18,7.67-3.37,11.47-.62,1.87-1.26,3.74-1.93,5.59-1.4,3.87-2.97,7.68-4.59,11.47-1.75,4.08-3.52,8.16-5.27,12.24-3.35,7.79-7.09,15.42-10.6,23.14-1.74,3.81-3.45,7.62-5.19,11.42-1.67,3.63-3.39,7.25-5.03,10.9-3.46,7.71-6.54,15.58-10.05,23.28-1,2.03-2.01,4.06-3.07,6.08-.97,1.88-2.07,3.7-3.13,5.53-2.08,3.61-4.12,7.24-6.02,10.94-1.99,3.86-3.97,7.71-6.02,11.53-2.02,3.79-4.09,7.55-6.09,11.35-1.98,3.76-3.86,7.58-5.69,11.42-.58,1.21-1.13,2.47-1.63,3.72-.47,1.19-.98,2.37-1.39,3.58-.5,1.46-1,2.92-1.45,4.39-.44,1.43-.81,2.86-1.2,4.32-.65,2.48-1.18,5.01-1.64,7.53-.52,2.88-.99,5.76-1.34,8.66-.51,4.28-.78,8.58-.95,12.9-.18,4.4-.35,8.8-.51,13.2-.3,8.2-.47,16.41-.86,24.61-.16,3.06-.32,6.12-.51,9.18-.17,2.8-.33,5.6-.34,8.4,0,2.78-.08,5.55-.12,8.33-.01.84-.03,1.67-.04,2.51,0,.25.02.49.03.73-1.09,2.94-2.18,5.88-3.25,8.83-1.4,3.85-2.82,7.71-4.11,11.6-2.79,8.44-5.38,16.93-8.11,25.38.04-.15.1-.31.14-.47-.29.93-.6,1.84-.9,2.76-1.33,4.06-2.75,8.09-4.11,12.14-1.38,4.1-2.55,8.26-3.69,12.43-1.59,5.79-2.94,11.63-4.3,17.46-.27-3.58-.56-7.15-.84-10.73-.69-9.1-1.7-18.18-2.68-27.25-.4-3.81-.81-7.61-1.22-11.41,0,.08.01.15.02.23-1.11-10.59-2.35-21.18-3.89-31.72.81-.53,1.62-1.04,2.43-1.56,2.37-1.53,4.77-3.02,7.18-4.52,2.36-1.46,4.74-2.91,7.01-4.5,1.24-.87,2.44-1.79,3.59-2.78,1.1-.94,2.07-1.97,3.01-3.05.01-.02.03-.04.04-.05.04-.05.08-.1.13-.15,0,0,0,0,0,0,.88-1.08,1.71-2.2,2.44-3.38,1.64-2.6,2.68-5.43,3.21-8.46.5-2.9.79-5.83.6-8.78-.39-5.99-2.29-11.81-4.49-17.36-2.1-5.3-4.32-10.57-6.71-15.73-1.23-2.65-2.65-5.24-4.31-7.63-1.65-2.38-3.46-4.6-5.37-6.76-3.86-4.4-7.88-8.7-12.89-11.82-1.14-.72-2.38-1.36-3.63-1.86-1.38-.55-2.79-1.1-4.25-1.42-.2-.04-.4-.07-.59-.11-.13-1.26-.27-2.52-.4-3.78.03.25.06.5.08.75-.01-.14-.03-.28-.04-.43-.6-5.75-.91-11.56-1.25-17.33-.41-6.93-.82-13.85-1.22-20.78-.6-10.46-1.23-20.9-1.7-31.37-.47-10.24-.67-20.5-.98-30.75-.29-9.73-.76-19.47-.82-29.2-.03-5.09-.16-10.19-.06-15.28.11-5.58.22-11.15.32-16.72.08-2.25.18-4.5.26-6.74.23-.77.42-1.54.65-2.31,1.22-4,2.5-7.99,4.03-11.88,1.52-3.88,3.13-7.72,4.87-11.51,3.62-7.75,7.82-15.14,12.37-22.37,2-3.14,4.15-6.18,6.28-9.25,1.59-2.29,3.13-4.6,4.77-6.86,1.87-2.58,3.7-5.22,5.65-7.75,1.79-2.34,3.58-4.67,5.39-6.98,1.58-2,3.05-4.08,4.57-6.12.04.03.07.06.12.09.35.22.72.41,1.1.57.5.26,1.02.49,1.57.62.17.04.36.07.54.09,1.94.18,3.86-.46,5.66-1.12,3.67-1.34,7.24-3.12,10.45-5.35,2.16-1.49,4.18-3.12,6.13-4.86,4.55-4.08,8.87-8.39,13.16-12.74,2.47-2.51,4.99-5.02,7.33-7.66,1.42-1.62,2.85-3.23,4.28-4.85,1.38-1.56,2.64-3.24,3.96-4.85,2.16-2.66,4.21-5.44,6.23-8.22,2.18-3.01,4.37-6.01,6.41-9.13,2.27-3.47,4.51-6.95,6.7-10.47,1.89-3.03,3.73-6.1,5.58-9.16,3.88-6.39,7.91-12.69,11.65-19.16,3.67-6.37,7.13-12.85,10.86-19.19,3.82-6.49,7.72-12.95,11.7-19.33,3-4.73,6.13-9.37,9.16-14.05,3.14-4.85,6.21-9.74,9.24-14.67,3.94-6.42,8.04-12.78,11.54-19.46,1.84-3.5,3.53-7.06,5.16-10.66.79-1.75,1.5-3.53,2.24-5.29.64-1.55,1.24-3.14,1.78-4.73,1.19-3.61,2.32-7.23,3.33-10.91.53-1.94,1.02-3.88,1.5-5.83.43-1.75.82-3.54,1.09-5.32.27-1.79.56-3.57.71-5.37.17-1.97.24-3.91.3-5.88.05-1.77,0-3.55,0-5.32-.02-2.08-.03-4.16-.03-6.24,0-3.48.06-6.97-.07-10.44-.14-3.74-.32-7.49-.52-11.22-.2-3.53-.39-7.06-.75-10.57-.39-3.8-.96-7.57-1.37-11.37.02.14.04.29.05.44-.49-4.94-.91-9.9-1.01-14.86-.04-2.48-.05-4.97-.05-7.45,0-1.25,0-2.51,0-3.77,0-1.63-.72-3.33-2.21-4.15-.59-.32-1.24-.4-1.85-.28-.13-.61-.47-1.17-.99-1.55-1.1-.79-2.81-.59-3.58.57-.33.51-.67,1-.99,1.52-.3.45-.6.88-.9,1.33-.63.98-1.15,2.01-1.68,3.04s-1.05,2.07-1.58,3.1c-.82,1.62-1.66,3.22-2.52,4.81-.94,1.72-1.72,3.51-2.51,5.3-.86,1.95-1.73,3.91-2.62,5.85.06-.13.12-.27.19-.4-2.08,4.44-3.97,8.96-5.93,13.46,0,0,0-.02.01-.02,0,.01-.01.03-.02.04-.02.04-.03.08-.05.11,0-.02.02-.04.02-.06-.02.03-.03.07-.04.1-.04.09-.07.16-.11.25.02-.06.04-.11.06-.16-.5,1.1-1.01,2.2-1.51,3.3.02-.03.03-.06.05-.09-2.27,4.94-4.64,9.88-7.2,14.69-1.51,2.83-3.04,5.65-4.62,8.45-1.26,2.26-2.61,4.46-3.95,6.67-2.35,3.65-4.73,7.26-7.19,10.83-2.22,3.2-4.47,6.39-6.6,9.66-2.19,3.36-4.36,6.73-6.51,10.12-3.93,6.21-7.55,12.6-11.43,18.84-.53.82-1.05,1.63-1.58,2.45-4.03,6.23-8.3,12.29-12.68,18.28-4.5,6.16-9.06,12.29-13.03,18.81-.95,1.54-1.94,3.08-2.81,4.67-1.07,1.94-2.13,3.89-3.2,5.83-.92,1.67-1.68,3.44-2.52,5.15-.69,1.41-1.36,2.83-2,4.28-.9,2.02-1.8,4.05-2.68,6.07-.81,1.84-1.52,3.72-2.28,5.58-1.38,3.37-2.69,6.78-3.97,10.19-2.58,6.82-4.77,13.79-7.1,20.7-2.49,7.4-5.05,14.78-7.73,22.12-2.58,7.07-5.34,14.07-8.17,21.05-2.81,6.94-5.21,14.02-7.4,21.17-1.41,4.62-2.73,9.27-3.77,13.99-.49,2.2-.85,4.45-1.13,6.71-2.77,3.97-5.55,7.94-8.34,11.89-2.51,3.56-5.07,7.11-7.42,10.78-2.55,3.97-5.11,7.94-7.6,11.96-1.76,2.85-3.54,5.71-5.31,8.57-2.16,3.5-4.12,7.1-6.04,10.73-3.22,6.12-6.14,12.37-8.62,18.83-.6,1.58-1.14,3.18-1.71,4.78.09-1.74.14-3.49.28-5.23.34-4.16.68-8.32,1.02-12.48,1.19-14.46,2.77-28.9,4.35-43.31,2.26-20.61,4.59-41.22,6.54-61.86,1.99-21.08,3.95-42.16,5.76-63.26.9-10.48,1.88-20.95,2.85-31.42.93-9.82,1.86-19.63,3.06-29.42,1.4-11.42,2.91-22.83,4.45-34.23,1.17-8.64,2.25-17.28,3.42-25.91.08,0,.16.02.25,0,.98-.15,1.71-1.03,1.69-2,0-.11,0-.22,0-.33.08-.77.2-1.53.33-2.3.76-3.27,1.56-6.53,2.39-9.79.38-1.49.76-2.97,1.16-4.46.3-1.11.6-2.23.9-3.35.33-1.24.64-2.49,1.02-3.71.21-.58.46-1.15.71-1.72.34-.72.68-1.43,1.02-2.15.98-1.93,2-3.83,3.07-5.71.64-1.12,1.26-2.26,1.89-3.39,1.22-1.08,2.43-2.17,3.7-3.19,1.75-1.38,3.51-2.76,5.29-4.09.17-.13.31-.27.48-.41.29-.26.58-.52.88-.78.33-.3.64-.59.96-.9.87-.81,1.74-1.62,2.6-2.44,1.61-1.54,3.23-3.08,4.85-4.61-.04.04-.09.08-.13.13,1.46-1.31,2.93-2.61,4.53-3.76,0,0,0,0,0,0,.04-.03.09-.06.13-.1-.04.03-.07.06-.11.08.57-.38,1.15-.74,1.75-1.07,1.84-.93,3.8-1.57,5.68-2.43,1.52-.7,3.04-1.4,4.56-2.1,1.79-.82,3.61-1.6,5.36-2.51,2.78-1.45,5.56-2.88,8.33-4.32,1.99-1.03,3.93-2.12,5.9-3.2.46-.26.92-.51,1.37-.76.05-.03.1-.07.15-.1,1.24,3.12,3.85,5.68,7.29,6.48,5.7,1.33,11.61-2.02,13.07-7.78,1.05-4.12-.59-8.52-3.79-11.09.08-.07.17-.13.25-.19.02-.02,0-.06-.03-.04-.1.06-.2.11-.3.16-1.13-.89-2.44-1.56-3.91-1.9-5.7-1.33-11.61,2.02-13.07,7.78-.33,1.3-.37,2.62-.2,3.91-.25.15-.5.29-.74.45-1.96,1-3.9,2.06-5.84,3.1,0,0,0,0,0,0-.02,0-.04.02-.06.03-.03.02-.05.03-.08.04.01,0,.02-.01.03-.02-2.4,1.19-4.78,2.42-7.17,3.63-1.02.52-2.05,1.04-3.07,1.55-.59.3-1.21.55-1.81.82-2.68,1.21-5.36,2.43-8.04,3.63-.88.39-1.78.72-2.69,1.06-1.36.54-2.69,1.13-3.92,1.92-.92.59-1.79,1.25-2.63,1.95-.38.32-.76.62-1.13.95l.02-.02s-.07.06-.11.1c-.01,0-.02.02-.03.03-.5.46-.99.92-1.49,1.38,0,0,.01,0,.02-.01-1.61,1.48-3.1,3.07-4.65,4.61-1.59,1.59-3.2,3.16-4.82,4.71-1,.89-2,1.76-3.01,2.63-.42.36-.83.72-1.25,1.07,1.53-2.85,3.04-5.71,4.67-8.51,2.56-4.4,5.15-8.78,7.64-13.22,1.33-2.38,2.67-4.77,4.04-7.13.07-.13.16-.25.23-.38.33-.02.67.02.96-.14.45-.24.82-.53,1.07-.97.15-.27.22-.58.3-.88.33-.26.66-.52,1-.79.25-.2.51-.43.75-.64.26-.22.51-.42.76-.64,1.09-.99,2.18-2,3.23-3.05,1.11-1.11,2.23-2.21,3.36-3.3-.01.01-.03.03-.05.04.34-.31.67-.62,1.01-.92.31-.27.6-.57.91-.83.36-.3.73-.59,1.09-.89.31-.26.62-.53.93-.77.69-.52,1.37-1.07,2.08-1.58.75-.53,1.48-1.07,2.23-1.61,3.81-2.68,7.68-5.28,11.53-7.92,1.84-1.28,3.71-2.54,5.54-3.81.97-.67,1.93-1.35,2.91-2.02,1.02-.7,2.07-1.35,3.11-2.02.6.56,1.28,1.03,2.12,1.23,2.68.62,5.44-.94,6.12-3.64.67-2.62-.97-5.49-3.64-6.12-2.68-.62-5.44.94-6.12,3.64-.34,1.34-.07,2.73.62,3.86-1.49.89-2.96,1.83-4.41,2.77-2.9,1.89-5.8,3.76-8.71,5.63-1.88,1.21-3.79,2.41-5.66,3.62-2.1,1.37-4.19,2.75-6.24,4.19-.96.67-1.88,1.37-2.82,2.06-.49.36-.96.76-1.43,1.15-.33.27-.66.53-.97.81-.96.87-1.92,1.73-2.85,2.62-.79.76-1.58,1.51-2.37,2.27,0,0,.01,0,.02-.01-.02.01-.03.03-.05.04l-.06.06s.02-.02.02-.02c-.74.67-1.48,1.35-2.24,1.99,1.1-1.71,2.17-3.45,3.37-5.09.71-.98,1.39-2,2.16-2.94.74-.92,1.46-1.83,2.19-2.75,1.6-1.87,3.21-3.72,4.8-5.6,1.77-2.08,3.55-4.14,5.23-6.29,1.22-1.58,2.44-3.17,3.65-4.75.07.07.03.2.13.22h.01c.27.07.57-.11.64-.38.11-.45.24-.89.36-1.33.91-1.19,1.86-2.35,2.78-3.54.02-.02.05,0,.06-.02,1.55-1.88,3.11-3.73,4.66-5.61,0,0-.01.01-.02.02.03-.03.05-.06.08-.09,0,0,0,0,0,0h0c.51-.58,1.02-1.17,1.55-1.73.56-.58,1.14-1.14,1.73-1.7-.02.02-.05.05-.07.07,1.66-1.51,3.45-2.91,5.28-4.21h-.02c1.38-.96,2.8-1.88,4.2-2.82.97-.66,1.99-1.25,3-1.86.99-.6,1.97-1.2,2.98-1.77,1.51-.85,3-1.71,4.54-2.52-.03.01-.06.03-.09.04,1.14-.6,2.29-1.15,3.49-1.63.16-.06.33-.11.5-.15.03,0,.05,0,.08-.01.12.12.28.2.46.23.56.06,1.06-.55.79-1.08-.43-.84-1.69-.5-2.36-.23-.82.33-1.64.66-2.44,1.03-.74.34-1.47.7-2.19,1.06-.4.2-.8.41-1.21.61-1.12.56-2.24,1.1-3.34,1.68-1.2.65-2.38,1.29-3.58,1.93-.34.18-.69.35-1.01.55-.49.29-.98.59-1.47.89-.71.43-1.42.87-2.14,1.3-.34.21-.67.45-1.01.67,1.5-1.75,3-3.5,4.39-5.34.84-1.12,1.66-2.24,2.46-3.4.75-1.11,1.45-2.24,2.16-3.38.68-1.11,1.31-2.26,1.96-3.39.29-.52.57-1.06.86-1.58.06.02.11.07.17.08,4.01.93,8.17-1.43,9.2-5.47,1-3.94-1.47-8.27-5.47-9.2-4.01-.93-8.17,1.43-9.2,5.47-.63,2.51.24,5.08,1.92,6.93-.92,1.72-1.86,3.44-2.87,5.11-.79,1.21-1.58,2.4-2.42,3.57-.81,1.13-1.69,2.2-2.56,3.28-1.48,1.73-2.98,3.44-4.51,5.14-1.71,1.9-3.44,3.79-5.11,5.74-.73.84-1.43,1.71-2.15,2.56.13-.36.26-.71.39-1.07.26-.7.52-1.4.77-2.11.13-.34.27-.69.38-1.04.34-1,.68-2,1.03-2.99.25-.76.54-1.53.76-2.31.37-1.25.74-2.5,1.1-3.75.24-.79.45-1.59.67-2.39.16-.64.34-1.28.51-1.91.1-.34.2-.68.3-1.02.53-.12.86-.73.62-1.24-.07-.15-.17-.27-.28-.4,0,0,.01.02.02.03-.08-.1-.15-.19-.26-.26-.2-.14-.45-.17-.68-.07-.19.09-.32.25-.38.45-.64,2.01-1.27,4.03-1.91,6.05.02-.03.02-.06.03-.1v.05c-.48,1.34-.94,2.69-1.4,4.04-.34.99-.73,1.97-1.11,2.94-.87,2.3-1.74,4.6-2.59,6.9-.14.36-.25.73-.37,1.09-.24.76-.5,1.52-.76,2.28-.1.31-.19.61-.27.91-1.62,1.98-3.18,4.01-4.78,6-1.6,2.01-3.22,4-4.85,5.98.06-.08.13-.17.21-.26-2.04,2.36-4.08,4.7-6.19,6.99-1.17,1.28-2.33,2.56-3.49,3.86-.02.02-.03.04-.05.06,2.09-7,4.14-14.01,6.08-21.05.07-.12.14-.25.21-.37-.01.02-.03.05-.05.07.54-.83,1.08-1.64,1.62-2.47.15-.22.28-.45.44-.67.22-.3.44-.6.66-.89.58-.79,1.17-1.59,1.76-2.38.16-.22.34-.44.51-.65.38-.49.76-.97,1.15-1.46.43-.54.85-1.08,1.26-1.63.35-.48.72-.96,1.07-1.43.15-.21.31-.4.46-.62.29-.41.56-.83.85-1.25.22-.32.45-.65.67-.97.49-.78,1.02-1.54,1.47-2.34,0,.01,0,.02-.01.03.03-.05.07-.11.1-.16.18-.05.33-.17.4-.35v-.05c.11-.25.04-.53-.18-.69-.19-.15-.44-.15-.65-.03-.39.21-.61.59-.84.96.01-.02.03-.05.04-.07-.34.51-.71,1-1.07,1.49-.19.26-.38.53-.57.78-.45.6-.9,1.2-1.35,1.81-.27.36-.55.7-.83,1.05-.72.91-1.44,1.83-2.17,2.73-.49.61-.98,1.22-1.47,1.82-.22.28-.43.57-.64.86-.5.68-1,1.37-1.51,2.05,0,0,0,0,0,0,1.12-4.21,2.23-8.43,3.3-12.65.63-2.49,1.26-4.99,1.87-7.48.16-.66.32-1.31.48-1.97,2.24.35,4.47-.96,5.05-3.21.58-2.3-.86-4.82-3.2-5.36-2.34-.54-4.76.84-5.36,3.2-.52,2.07.64,4.24,2.57,5.07-.23.6-.46,1.2-.69,1.8-1.07,2.8-2.13,5.59-3.18,8.41-1.53,4.13-3.1,8.27-4.53,12.44-1.67,4.85-3.39,9.7-4.89,14.6,0-.01,0-.02,0-.04-.18.55-.35,1.12-.51,1.69-.93,3.03-1.85,6.07-2.78,9.1-.65,2.14-1.33,4.28-1.96,6.43-.35,1.23-.73,2.44-1.11,3.66-1.39,2.12-2.78,4.24-4.09,6.41-1.5,2.45-2.91,4.95-4.34,7.43,0-.01,0-.03.01-.04.62-2.2,1.24-4.39,1.82-6.6.27-1.04.55-2.09.76-3.14.12-.6.26-1.19.36-1.79.1-.6.21-1.2.31-1.79.17-1.01.32-2.02.45-3.03.17-1.28.32-2.56.46-3.84.24-2.23.42-4.46.55-6.7.14-2.44.25-4.88.34-7.32.05-1.34.1-2.68.15-4.02,3.38.59,6.79-1.39,7.65-4.79.87-3.43-1.28-7.2-4.78-8.02-3.5-.81-7.12,1.25-8.02,4.78-.8,3.17,1.03,6.53,4.07,7.68,0,.11,0,.22-.01.33,0-.03,0-.05,0-.07-.07,1.03-.12,2.06-.19,3.09-.06.92-.16,1.83-.24,2.75-.16,1.81-.37,3.61-.57,5.4-.43,3.64-.99,7.26-1.62,10.87,0-.01,0-.03,0-.04-.1.54-.21,1.09-.31,1.64-.86,4.48-2.27,8.82-3.37,13.25-.56,2.27-1.07,4.55-1.58,6.83-.04.17-.08.34-.12.51-.25.39-.51.77-.72,1.18-.3.59-.57,1.16-.83,1.77-.07.17-.02.35,0,.52-1.94,3.35-3.9,6.69-5.67,10.14-2.44,4.77-4.87,9.56-7.18,14.39-1.11,2.33-2.06,4.73-2.99,7.13-.35.91-.71,1.82-.99,2.76-.27.89-.45,1.79-.64,2.7.27-1.69.54-3.38.81-5.07,0,.04-.02.08-.02.13.02-.11.03-.21.05-.31,0-.06.02-.13.03-.19,0,.02,0,.04,0,.07,2.73-16.27,5.64-32.49,8.49-48.72.88-5.04,1.77-10.07,2.66-15.1.28-1.19.61-2.38.86-3.57.55-2.59,1.07-5.17,1.53-7.78.38-2.09.66-4.22.94-6.32.2-1.5.38-2.99.57-4.48.34-1.91.69-3.82,1-5.74.37-2.21.74-4.44,1.12-6.66.54-2.55,1.06-5.1,1.63-7.64.28-1.26.5-2.52.75-3.78.28-1.37.56-2.74.82-4.12.28-1.46.59-2.91.87-4.36.14-.76.33-1.51.48-2.27.46-.81.92-1.61,1.42-2.4,3.38-5.21,6.94-10.33,10.48-15.44.97-1.4,2.01-2.74,2.99-4.12.05.02.09.05.14.06.03,0,.06.01.09.01.3.03.57-.17.6-.47.02-.15-.04-.3-.14-.42.35-.22.7-.44,1.06-.65,0,0,0,0,0,0,0,0,.01,0,.02-.01-.34.25-.3.81.14.93,0,0,.02,0,.03,0,.28.06.6.02.88.02.4,0,.81-.01,1.22-.02.29,0,.54-.26.52-.54,0-.19-.11-.36-.26-.46.63-.33,1.26-.67,1.9-.98,2.17-1.02,4.32-2.05,6.49-3.05,2.12-.98,4.28-1.88,6.43-2.81,1.02-.45,2.05-.92,3.02-1.46.94-.51,1.88-1.02,2.75-1.65.97-.7,1.92-1.44,2.86-2.17,1.17,1.67,2.82,3.02,4.91,3.51,4.67,1.09,9.51-1.66,10.71-6.38,1.16-4.58-1.71-9.62-6.38-10.71-4.67-1.09-9.51,1.66-10.71,6.38-.47,1.87-.14,3.76.57,5.48-.86.64-1.71,1.28-2.58,1.9h0c-.08.06-.17.11-.25.16-.18.07-.36.14-.53.21-.97.4-1.93.81-2.9,1.2-.55.23-1.1.44-1.65.67-.56.23-1.13.45-1.68.69-.61.26-1.2.52-1.81.77-.46.2-.91.43-1.38.65-.47.22-.93.44-1.38.68-.54.27-1.07.56-1.61.83-.96.49-1.91,1.03-2.87,1.54-1.09.58-2.18,1.15-3.27,1.73.02-.01.04-.03.06-.04-.81.43-1.63.85-2.43,1.27-.17.09-.34.18-.51.26,1.15-1.57,2.24-3.19,3.43-4.73.52-.61,1.03-1.23,1.54-1.84,0,0-.01.02-.02.03.83-.9,1.66-1.8,2.52-2.67.92-.92,1.84-1.81,2.78-2.7-.02.01-.03.02-.04.04,1.1-1,2.18-2.04,3.26-3.07.03-.03.05-.05.08-.08.47-.45.95-.88,1.42-1.34,1.55-1.52,2.99-3.16,4.39-4.82,0,0,0,0,0,0,0,0,0,0,0,0s0,0,0,0h0s.05-.06.07-.09c-.01.01-.02.03-.04.04.03-.04.06-.07.09-.11.04-.05.09-.1.13-.16-.01.01-.02.03-.04.04.82-.99,1.65-1.98,2.46-2.98,2.26-2.8,4.35-5.73,6.45-8.66,0,0,.02-.01.02-.02.32-.2.63-.43.96-.61.86-.48,1.71-.97,2.57-1.46,0,0-.01,0-.02,0,.02,0,.03-.02.05-.02.01,0,.02-.01.03-.02,0,0-.01,0-.02.01.97-.49,1.94-1,2.91-1.49.29-.15.58-.28.88-.42.62-.29,1.23-.58,1.85-.86.29-.14.58-.28.87-.41.5-.21,1.01-.42,1.5-.63.82-.35,1.62-.7,2.44-1.01,3.79-1.49,7.58-3,11.4-4.44.26.25.48.55.85.64,1.15.27,2.34-.41,2.63-1.57.29-1.13-.42-2.36-1.57-2.63-1.15-.27-2.34.41-2.63,1.57-.09.36.06.7.16,1.05-.3.11-.61.23-.92.34-.28.11-.55.22-.84.32-.83.32-1.66.64-2.48.97,0,0,.02,0,.02-.01-1.25.45-2.51.89-3.76,1.36,0,0,.02,0,.03,0-1.28.47-2.55.94-3.82,1.41.03-.01.05-.02.08-.03-.23.09-.44.18-.66.27-.49.21-.97.41-1.45.61-.4.17-.8.32-1.2.49-.14.06-.29.11-.43.18-.5.24-.99.47-1.49.7-.62.3-1.24.58-1.86.88-.16.07-.31.16-.46.24-.33.17-.67.35-1,.52-.54.29-1.09.57-1.64.86-.39.21-.78.45-1.17.68.47-.65.93-1.31,1.41-1.94,3.32-4.38,6.7-8.71,9.63-13.37,1.19-1.92,2.3-3.88,3.4-5.84.06-.08.1-.15.14-.24.18-.32.38-.64.56-.96.25-.45.49-.92.74-1.37,1.11-1.27,2.2-2.56,3.32-3.81.6-.68,1.2-1.36,1.81-2.05.45-.5.9-1.02,1.37-1.51,3.32-3.36,6.71-6.66,9.73-10.29,1.49-1.79,2.83-3.69,4.15-5.61.06-.09.12-.17.18-.26.92.95,1.99,1.74,3.35,2.05,3.95.92,8.04-1.4,9.04-5.39.75-2.94-.48-6.08-2.83-7.83.15-.13.29-.26.44-.39.03-.03,0-.06-.02-.05-.2.11-.39.24-.59.35-.71-.5-1.49-.92-2.38-1.13-3.95-.92-8.03,1.4-9.04,5.39-.35,1.37-.15,2.75.28,4.05-.91.93-1.83,1.84-2.68,2.8-1.27,1.43-2.5,2.88-3.71,4.34.02-.02.04-.05.06-.07-.03.04-.07.08-.1.12l-.06.08s.02-.02.03-.04c-1.24,1.43-2.49,2.86-3.75,4.27-1.35,1.49-2.73,2.97-4.06,4.5-.21.25-.4.52-.61.78.34-1.18.72-2.35,1.04-3.54.62-2.25,1.29-4.49,2-6.72,1.31-3.91,2.98-7.72,4.61-11.51.44-1.01.89-2.03,1.33-3.03.26-.59.48-1.18.71-1.78,1.24-.41,2.29-1.34,2.63-2.7.38-1.49-.21-3.07-1.35-4.02,0-.06.01-.11.01-.17,0-.02-.04-.03-.05-.02-.02.02-.05.05-.07.07-.41-.31-.88-.55-1.41-.67-2.1-.49-4.27.74-4.81,2.87-.37,1.44.19,2.95,1.26,3.91-.2.38-.44.73-.64,1.12-1.21,2.43-2.42,4.85-3.6,7.29-1.14,2.35-2.33,4.68-3.34,7.08-.96,2.27-1.87,4.56-2.62,6.91-.78,2.32-1.61,4.62-2.63,6.85-.92,1.8-1.99,3.51-3.05,5.23-1.02,1.63-2.03,3.28-3.07,4.9-.02.03-.04.06-.05.09-.02.03-.04.06-.06.09,0,0,0-.01.02-.02-.01.02-.02.04-.03.05,0,0,0,0,0,0,0,0,0,0,0,0-.06.1-.12.2-.19.3,0-.01.02-.03.03-.04-.08.12-.15.24-.23.36.02-.03.03-.05.05-.08-.1.15-.2.3-.3.45-.08.11-.15.23-.22.34-1.41,2.15-2.87,4.27-4.38,6.35-3.16,4.34-6.44,8.58-9.51,12.99-.52.75-1.05,1.48-1.56,2.23,1.15-2.93,2.32-5.85,3.28-8.84,1.51-4.7,2.71-9.49,3.34-14.39,0-.03,0-.05,0-.08,1.16-.26,2.27-.7,3.21-1.46,1.62-1.31,2.46-3.08,2.81-5.1.25-1.4.33-2.8.38-4.24.11-3.59-2.98-6.72-6.43-7.12-3.4-.4-6.22,1.57-7.63,4.55-.61,1.3-1.07,2.62-1.49,4.01-1.19,3.94,1.51,7.96,5.22,9.17-1.2,3.4-2.38,6.82-3.5,10.25-.91,2.79-1.8,5.58-2.57,8.41-.74,2.73-1.52,5.44-2.39,8.13.03-.08.06-.17.09-.26-.26.8-.52,1.58-.77,2.38.03-.09.06-.17.09-.26-.16.51-.33,1-.48,1.51.01-.04.02-.09.03-.13-.45,1.38-.9,2.75-1.39,4.12-.04.11-.08.22-.12.34-3.49,4.02-7.27,7.79-10.47,12.05-1.62,2.14-3.04,4.42-4.39,6.73-1.25,2.13-2.53,4.22-3.85,6.3,0,0,0-.01.01-.02-.06.09-.11.18-.17.26-.06.1-.13.2-.19.3,0,0,.01-.02.02-.03-.08.12-.16.25-.24.38,0,0,0,0,0-.01-.36.56-.72,1.13-1.08,1.69.04-.07.08-.14.13-.2-.15.23-.3.47-.45.7.01-.02.03-.04.04-.06-1.82,2.85-3.67,5.67-5.52,8.5-.39.6-.78,1.19-1.17,1.78.02-.07.03-.14.04-.21.99-3.94,2.1-7.84,3.18-11.74.69-2.47,1.34-4.94,1.96-7.42.71-2.45,1.44-4.89,2.2-7.32-.05.14-.09.28-.14.42.26-.8.53-1.61.79-2.42-.01.03-.02.06-.03.1.32-.98.65-1.95.96-2.93-.04.15-.1.3-.14.44.31-.97.65-1.93.95-2.91.61-2.08,1.23-4.16,1.74-6.27.51-2.16,1.01-4.32,1.5-6.48,1.03-4.5,2.12-8.97,3.35-13.42,1.17-4.22,2.36-8.44,3.44-12.68,1.12-4.36,2.1-8.76,3.25-13.12.68-2.6,1.44-5.18,2.17-7.77.41-.69.74-1.43,1.17-2.1,1.16-1.77,2.41-3.47,3.74-5.12,0,0,0,.01-.02.02.01-.01.02-.02.03-.04.02-.02.04-.04.05-.07,0,.01-.02.02-.02.03,1.32-1.52,2.63-3.04,3.96-4.55.95-1.06,1.89-2.12,2.83-3.18,1.47-1.65,2.88-3.35,4.48-4.88.23-.21.46-.4.71-.58,0,0,0,0,0,0,.18,0,.35-.04.51-.13.28-.18.46-.5.45-.84,0-.34-.19-.66-.49-.82-.28-.15-.58-.15-.87-.04-.05.02-.1.05-.15.08-.08.04-.15.07-.22.11-.1.07-.21.14-.3.22-.27.2-.52.42-.77.64-.45.41-.88.87-1.31,1.3-1.1,1.14-2.14,2.33-3.2,3.5-.88.97-1.79,1.92-2.68,2.88-.65.7-1.28,1.39-1.92,2.09-.59.66-1.19,1.31-1.78,1.96-.36.4-.73.79-1.08,1.2-.44.53-.83,1.09-1.26,1.63,1.18-3.99,2.39-7.98,3.62-11.97.79-2.56,1.53-5.14,2.28-7.72.02-.03.03-.06.05-.09,0,0-.01.02-.02.03,2.34-3.54,4.67-7.09,7.02-10.61,1.32-1.97,2.64-3.93,3.98-5.89.36-.53.8-1.01,1.19-1.52,0,.05,0,.1,0,.15.03.41.28.87.69,1,.01,0,.02,0,.03,0,.38.09.75-.24.75-.62,0-.25-.17-.49-.4-.58.01-.02.02-.04.03-.06.03-.04.06-.07.09-.11.03-.02.06-.04.09-.06.12-.06.24-.12.36-.17.08-.02.16-.05.24-.07.25-.05.51-.09.76-.11.3-.02.6,0,.91,0-.54,3.77,1.77,7.66,5.57,8.55,4.06.95,8.27-1.44,9.31-5.54,1.01-3.99-1.48-8.37-5.54-9.31-3.44-.8-6.86.87-8.5,3.87-.57.13-1.16.21-1.7.43-.38.16-.73.35-1.08.55.34-.42.66-.85.99-1.27-.02.02-.04.04-.05.06.03-.03.06-.07.09-.1,0-.01.02-.02.03-.03,0,0-.02.02-.02.03,1.12-1.28,2.25-2.54,3.42-3.77.5-.53,1-1.07,1.54-1.58.66-.63,1.32-1.27,1.97-1.9.19-.17.38-.34.57-.51,1.7-1.51,3.42-2.98,5.16-4.45,1.84-1.55,3.71-3.08,5.54-4.67.89-.78,1.79-1.56,2.67-2.36.92-.85,1.84-1.71,2.75-2.58,1.67-1.58,3.34-3.18,5.02-4.75-.01.02-.03.03-.04.05,2.54-2.33,5.01-4.75,7.51-7.14.13,1.97,1.44,3.81,3.44,4.28,2.48.58,5.03-.88,5.68-3.38.62-2.43-.91-5.1-3.38-5.67,0,0,0,0,0,0,.02-.01.03-.02.05-.03.03-.02,0-.06-.02-.05-.06.02-.12.05-.18.08-1.99-.39-3.94.52-4.94,2.21-1.47.81-2.88,1.72-4.25,2.67-1.5,1.02-2.95,2.12-4.35,3.29-1.47,1.23-2.86,2.56-4.25,3.89-1.27,1.21-2.55,2.41-3.83,3.62.05-.05.1-.09.14-.14-1.37,1.26-2.75,2.51-4.17,3.72-1.62,1.37-3.25,2.73-4.88,4.09-.21.17-.4.35-.61.53.12-.3.24-.61.36-.9.85-1.58,1.72-3.14,2.65-4.67,1-1.66,1.96-3.35,2.89-5.06,1.11-2.03,2.17-4.09,3.24-6.14.64-1.25,1.19-2.55,1.78-3.83.43.2.8.5,1.28.61,4.01.93,8.14-1.42,9.17-5.45.99-3.92-1.46-8.24-5.45-9.17-.43-.1-.85-.02-1.28-.05.04-.49.15-.97.17-1.46,0,0,0,0,0,0,0-.15.01-.28.02-.43v.02c.02-.46.03-.92.04-1.38,0-.03-.04-.04-.05,0-.2.73-.43,1.45-.67,2.17,0,0,0-.01.01-.02-.13.36-.26.71-.39,1.07-3.24.16-6.18,2.22-7.02,5.53-.58,2.31.12,4.67,1.53,6.48-.31.61-.62,1.22-.91,1.83.03-.06.06-.13.1-.19-.91,1.92-1.74,3.86-2.56,5.81-.8,1.9-1.6,3.8-2.38,5.7-.83,2.03-1.62,4.07-2.44,6.09-.36.92-.72,1.84-1.1,2.76-.29.72-.6,1.47-.78,2.24-.87.75-1.76,1.49-2.61,2.26-.46.42-.94.83-1.39,1.27-.4.4-.79.79-1.18,1.19-.4.4-.82.79-1.21,1.2-.42.46-.84.93-1.26,1.39-.79.88-1.56,1.77-2.32,2.68-.36.44-.73.85-1.08,1.3-.39.52-.79,1.04-1.18,1.55-.72.95-1.42,1.92-2.1,2.89-.32.46-.61.96-.92,1.45-.31.48-.61.96-.92,1.46.03-.05.06-.09.08-.14-.08.12-.16.25-.24.37.01-.02.03-.03.04-.05-.08.13-.17.25-.25.38,0-.01.01-.02.02-.03-.06.1-.13.2-.19.3.03-.05.06-.09.08-.14-.22.35-.44.69-.66,1.04.01-.02.02-.03.03-.05-.12.18-.24.37-.36.55,0,0,.01-.02.02-.03-.31.49-.62.97-.94,1.46.03-.05.06-.09.08-.14-.07.11-.13.2-.2.31.02-.03.04-.06.07-.1-.04.07-.08.13-.12.19,0,0,0,0,0,0,.01-.02.03-.05.04-.07-.86,1.31-1.71,2.63-2.57,3.95.95-3.23,1.89-6.46,2.91-9.68,1.43-4.25,2.97-8.45,4.54-12.65,1.48-3.95,2.8-7.98,3.97-12.05,1.24-4.36,2.46-8.71,3.71-13.06.07-.26.16-.51.24-.77.13-.3.27-.6.4-.9-.01.02-.03.05-.04.08.44-.9.86-1.81,1.32-2.71.49-.96.98-1.91,1.5-2.85.49-.88.97-1.77,1.49-2.65.64-1.06,1.27-2.13,1.91-3.19,0,0-.01.01-.02.02.43-.65.84-1.31,1.26-1.97.46-.71.92-1.42,1.38-2.13,0,0,0,0,0,0,.43-.65.88-1.28,1.32-1.92.46-.67.9-1.36,1.38-2.02,1.29-1.78,2.55-3.6,3.95-5.3,0,0,0,0,0,0,0,0,.01-.01.02-.02.01-.02.03-.04.04-.05,0,0,0,0,0,.01.61-.71,1.24-1.41,1.93-2.06.42-.38.85-.73,1.3-1.07,0,0,0,0,0,0,.06-.05.13-.09.2-.14.03-.01.05-.02.08-.04.12.16.31.27.53.27.39,0,.7-.37.64-.75-.05-.28-.16-.56-.42-.67-.22-.09-.4-.14-.64-.1-.38.05-.76.22-1.07.44-.21.14-.4.29-.6.44-.28.2-.56.4-.83.62-.48.4-.94.81-1.39,1.24-.58.56-1.14,1.14-1.66,1.73-.31.35-.63.68-.91,1.05-.82,1.06-1.64,2.1-2.46,3.16-.18.23-.34.47-.52.72-.45.65-.91,1.3-1.37,1.95-.34.48-.69.97-1.02,1.46-.22.31-.41.64-.61.96-.48.75-.94,1.49-1.42,2.24-.23.35-.47.7-.67,1.06-.69,1.2-1.37,2.4-2.06,3.6,0,0,0,0,0,0,.2-.61.37-1.23.57-1.84v.03c.08-.3.18-.59.27-.89,0,0,0,.02-.01.03.77-2.36,1.51-4.72,2.21-7.1.52-1.74.97-3.5,1.48-5.24,0,0,0,.01,0,.02.02-.06.04-.11.05-.17.09-.25.17-.5.2-.76.06-.51-.26-.91-.69-1.14.21-.81.38-1.63.62-2.43,0,0,0,0,0,.01,0-.01,0-.02.01-.03,0-.03.02-.06.02-.08v.04c.32-.96.64-1.91.98-2.86.32-.92.65-1.85.9-2.79.55-2,.98-4.02,1.35-6.06,0,0,0,.02,0,.03.33-1.77.66-3.53.99-5.29.33-1.74.69-3.47,1.05-5.21.67-3.27,1.32-6.54,2.33-9.72.07-.19.13-.37.2-.55.8.38,1.65.68,2.54.89,7.3,1.7,14.84-2.59,16.71-9.95,1.81-7.16-2.66-15.02-9.95-16.72-7.3-1.7-14.85,2.59-16.72,9.95-1.42,5.6,1.05,11.59,5.67,14.76-.01.03-.03.05-.04.08-.38.99-.67,2.01-.95,3.02-.28,1.02-.55,2.04-.78,3.08-1,4.32-1.95,8.65-2.75,13.01,0,0,0-.02,0-.02-.06.33-.12.66-.18.98,0,0,0-.01,0-.02-.15.82-.3,1.63-.45,2.45,0,0,0-.01,0-.02-.4,2.11-.84,4.21-1.43,6.28-.55,1.91-1.23,3.8-1.7,5.74-.49,2.08-.99,4.17-1.49,6.26-.02.08-.04.15-.05.22-.26.84-.53,1.68-.8,2.52-1.28,3.81-2.7,7.57-4.03,11.36-1.4,3.96-2.73,7.93-4.05,11.92-1.31,3.99-2.61,8.01-4.12,11.93.29-2.5.54-5.02.67-7.54,0-.2.02-.41.03-.61,0-.07,0-.13.01-.2.01-.27.02-.54.04-.81,0,.1-.01.2-.02.3.11-2.18.03-4.38-.12-6.56.27-.1.54-.23.76-.46.82-.87.72-2.14-.07-2.98-.25-.27-.5-.52-.75-.79-.14-.15-.3-.29-.44-.44-.11-.89-.16-1.8-.3-2.68-.36-2.3-.69-4.6-.98-6.9-.16-1.26-.3-2.53-.44-3.79,0-.13,0-.26,0-.39h0c.01-.22.02-.43.03-.65,0,.04,0,.08,0,.11.06-.93.15-1.85.22-2.78.06-.57.09-1.16.16-1.74.08-.7.13-1.41.24-2.11.09-.61.2-1.24.29-1.85.13-.61.28-1.22.42-1.82.12-.51.28-1,.42-1.5.29-1.04.63-2.08.97-3.11-.02.05-.03.1-.05.14.64-1.86,1.25-3.71,1.82-5.59.52.2,1.05.41,1.6.53.91.21,1.86.32,2.82.3,6.79-.11,11.81-5.7,11.94-12.31.01-.65,0-1.3.02-1.95.1-5.9-4.81-11.01-10.53-11.68-5.87-.68-11.54,3.19-12.98,8.93-.28,1.14-.52,2.31-.68,3.47-.14.97-.1,1.93,0,2.86-.91,3.66-1.37,7.44-1.39,11.21,0,1.87.07,3.74.07,5.61,0,1.9.02,3.8.07,5.69.05,2.27.17,4.53.27,6.79.12,2.35.22,4.71.39,7.06.07.97.19,1.94.29,2.92-1.4-1.35-2.82-2.69-4.26-4-1.6-1.45-3.24-2.88-4.83-4.35,2.99-1.74,5.31-4.6,6.24-8.22,1.78-7-2.61-14.7-9.75-16.36-7.14-1.66-14.53,2.54-16.36,9.75-1.78,7,2.61,14.7,9.75,16.36,2.36.55,4.72.41,6.92-.22.54.67,1.12,1.33,1.72,1.96.8.84,1.59,1.68,2.39,2.51,2.9,3.01,5.88,5.93,8.83,8.9.17,1.52.36,3.05.5,4.58.25,3.13.33,6.27.33,9.41,0,1.76,0,3.51,0,5.25,0,1.48-.07,2.95-.13,4.43-.04.84-.12,1.66-.26,2.49v-.06s0,.05,0,.07c0,.04-.01.07-.02.11,0-.03,0-.06.01-.09-.21.95-.44,1.88-.68,2.82-.11.31-.23.62-.35.92-.02.04-.05.08-.07.12-.25.39-.24.83-.09,1.23-1.76,3.84-3.41,7.74-4.82,11.73-1.49,4.19-2.93,8.39-4.39,12.59,0-.03,0-.05,0-.07-.04-.86-.12-1.72-.19-2.58-.26-3.02-.61-6.03-.92-9.05-.46-4.62-.89-9.25-1.57-13.85-.17-1.16-.34-2.31-.53-3.46-.19-1.19-.39-2.38-.59-3.57-.13-.78-.26-1.57-.39-2.35-.06-.37-.14-.74-.17-1.12-.01-.13-.03-.26-.04-.39.43-.26.84-.57,1.14-.96.31-.42.49-.94.61-1.45v-.05c.13-.16.23-.32.32-.49.16-.31.27-.56.38-.9.08-.25.11-.49.17-.75.1-.57-.04-1.17-.23-1.69-.19-.52-.51-.92-.91-1.28-.63-.58-1.64-.78-2.45-.6-1.09.25-2.02.97-2.61,1.9-.64.99-1.17,2.11-1.17,3.31,0,.57.09,1.11.32,1.64.12.25.29.52.46.73.18.21.4.38.61.55.2.18.48.27.73.38.09.04.18.07.28.1.16.04.33.05.49.08.26.03.51-.09.78-.14.01.14.02.29.04.43,0-.03,0-.05,0-.08.07,1.13.13,2.25.2,3.39.07,1.16.18,2.31.27,3.46.15,1.93.28,3.86.41,5.8.15,2.12.28,4.23.42,6.35.15,2.2.26,4.39.45,6.59,0,0,0-.02,0-.03.25,2.98.54,5.94.9,8.91.16,1.33.35,2.64.49,3.97.08.71.15,1.43.25,2.14.02.21.06.42.09.63-2.42,6.69-4.93,13.35-7.19,20.1-1.49,4.46-2.9,8.95-4.13,13.49-1.21,4.49-2.37,8.98-3.57,13.46-1.14,4.27-2.27,8.53-3.27,12.83-1.04,4.43-1.79,8.94-2.62,13.41.03-.17.06-.34.09-.51-.37,1.9-.8,3.78-1.2,5.66,0-.01,0-.03,0-.04-.07-2.24-.09-4.48-.18-6.71-.11-2.48-.22-4.96-.41-7.43-.17-2.28-.39-4.56-.61-6.83-.03-.36-.1-.71-.14-1.06.28-1.86.56-3.73.79-5.6.27-2.18.56-4.36.87-6.53.68-4.65,1.32-9.29,2.13-13.92,0,0,0-.02,0-.03h0s.01-.06.02-.09c.06-.32-.17-.66-.46-.77-.33-.13-.66-.02-.87.25-.1.12-.17.24-.24.39-.07.16-.07.32-.03.48-.55,2.22-1.12,4.43-1.63,6.66-.24,1.07-.51,2.13-.72,3.2-.24,1.17-.48,2.34-.7,3.51-.22,1.08-.37,2.17-.54,3.25-.21-1.15-.41-2.31-.65-3.46-.48-2.26-.96-4.52-1.39-6.79-.3-1.62-.57-3.26-.84-4.89.1-1.01.2-2.02.33-3.02.07-.56.14-1.12.22-1.68.1-.73.19-1.47.31-2.19.2-.9.49-1.77.76-2.65.21-.69.42-1.37.63-2.06.31-1,.64-2,.95-2.99-.02.04-.03.09-.05.13.69-2.02,1.35-4.05,2.03-6.07.7-2.1,1.45-4.2,2.18-6.29.47-1.37.92-2.74,1.37-4.1.43.17.85.35,1.31.46,5.66,1.32,11.52-2.01,12.98-7.72,1.41-5.55-2.06-11.66-7.73-12.98-2.93-.68-5.9-.1-8.3,1.39.22-.53.45-1.05.6-1.63,1.57-6.19-2.3-13-8.61-14.46-6.32-1.47-12.85,2.24-14.46,8.61-1.57,6.19,2.3,13,8.61,14.46.79.18,1.58.29,2.36.31-.34,2.88-.68,5.74-.83,8.63,0-.01,0-.03,0-.04-.11,2.31-.13,4.62-.14,6.94,0,.86.01,1.73.03,2.59-.27-.41-.55-.82-.83-1.23-.8-1.17-1.64-2.32-2.48-3.47.01.01.02.03.03.04,0,0,0,0,0,0,0,0,0,0,0,0h0s.03.04.04.05c-.04-.05-.08-.11-.12-.17.02.03.04.06.06.09-.06-.08-.11-.16-.17-.24.03.04.05.07.08.11-.46-.65-.92-1.3-1.38-1.95.03.03.05.06.07.1-.08-.11-.17-.23-.25-.35-.04-.06-.08-.11-.12-.16t0,0s0,0,0,0c-.02-.03-.04-.05-.06-.08v.02s0-.02,0-.03c-.01-.02-.03-.04-.04-.06.01.01.02.02.03.03-.4-.6-.8-1.22-1.17-1.84-.39-.64-.75-1.29-1.1-1.94.02.02.03.05.05.08-.16-.31-.3-.62-.43-.94-.02-.07-.04-.15-.07-.23.09-.14.14-.31.11-.5-.09-.59-.84-.83-1.26-.4-.39.41-.25,1.05-.1,1.53.13.38.27.75.45,1.12.16.33.33.67.49,1.01.32.71.68,1.4,1.05,2.09.7,1.3,1.42,2.6,2.18,3.86.69,1.16,1.39,2.32,2.07,3.48.31.53.63,1.06.93,1.6.35.63.7,1.27,1.05,1.89.32.62.62,1.25.93,1.87,0,1.87,0,3.73-.02,5.61-.03,2.18-.04,4.37.08,6.55.13,2.36.31,4.73.51,7.09,0-.02,0-.05,0-.07.01.12.02.24.03.36v-.13c0,.05,0,.11,0,.16,0,.06,0,.11.01.17,0-.02,0-.05,0-.07.03.35.06.7.09,1.04.37,4.5,1.04,8.97,1.69,13.44.3,2.11.59,4.23.93,6.33.38,2.35.79,4.7,1.19,7.04.76,4.55,1.49,9.1,2.43,13.62.49,2.36,1.02,4.74,1.67,7.07.32,1.14.64,2.28,1.01,3.4.01.03.02.07.03.1-.16.67-.3,1.34-.46,2-.33.12-.57.46-.33.82.03.04.09.03.13.07-.39,1.67-.8,3.33-1.14,5.01-1.09,5.39-2.09,10.8-3.08,16.2-.12.32-.24.65-.36.97-.85,2.27-1.69,4.54-2.44,6.84-.46,1.43-.87,2.87-1.28,4.32-.74-2.91-1.49-5.82-2.19-8.74-1.06-4.53-2.1-9.07-3.35-13.55-.69-2.46-1.38-4.93-2.12-7.38-.64-2.11-1.31-4.23-2.02-6.33-1.55-4.55-3.12-9.08-4.87-13.55,0-.02-.02-.05-.03-.07,0-.66,0-1.33.02-1.99.06-1.76.14-3.51.21-5.25,0,.03,0,.07,0,.11.04-.88.09-1.77.13-2.65,0,.05,0,.1,0,.16.09-1.52.19-3.04.27-4.56,0,.06,0,.11-.01.17.07-1.28.15-2.57.21-3.85,0,.01,0,.02,0,.03.12-2.08.25-4.17.35-6.25,0,.02,0,.04,0,.06,0-.11.01-.22.02-.33,0,.04,0,.07,0,.11,0-.06,0-.11.01-.17,0,0,0-.02,0-.03,0,0,0,.01,0,.02.01-.21.02-.42.03-.63,0,.02,0,.03,0,.05,0-.05,0-.09,0-.14,0-.02,0-.04,0-.06,0,0,0,.01,0,.02,0-.1.01-.2.02-.3.02-.34.03-.69.05-1.03.09-1.91.14-3.82.06-5.72-.08-1.93-.23-3.86-.4-5.78,2.21-.07,4.24-1.45,4.81-3.7.66-2.62-.97-5.51-3.65-6.14-.67-.16-1.35-.17-2-.07,0-.03,0-.05,0-.08,0-.04-.05-.04-.05,0,0,.04-.01.07-.02.11-1.9.34-3.55,1.7-4.06,3.69-.59,2.33.7,4.79,2.86,5.76-.06.66-.14,1.31-.19,1.97-.26,3.96-.31,7.93-.37,11.9-.04,2.21-.09,4.44-.14,6.66-.06,2.39-.15,4.78-.16,7.17,0,1.91-.03,3.83-.07,5.74-.18-.41-.33-.83-.52-1.24-.98-2.16-1.99-4.31-3.02-6.45-1.01-2.1-2.02-4.2-3.01-6.31-.99-2.12-1.88-4.29-2.73-6.46h0c-.41-1.14-.81-2.27-1.19-3.43-.37-1.14-.68-2.31-.98-3.47-.58-2.25-1.1-4.51-1.62-6.77-.49-2.16-.99-4.32-1.5-6.47-.52-2.24-1.21-4.44-1.84-6.65-.19-.67-.34-1.34-.52-2.01,1.83-.7,3.35-2.12,3.88-4.16.81-3.24-1.21-6.81-4.52-7.58-3.3-.77-6.72,1.18-7.58,4.52-.81,3.24,1.21,6.81,4.52,7.58.71.16,1.42.15,2.11.08,0,.35-.02.69.01,1.03.23,2.3.66,4.58,1.23,6.84.56,2.25,1.21,4.48,1.79,6.72,1.15,4.39,2.19,8.82,3.74,13.09.81,2.22,1.69,4.42,2.63,6.6.88,2.06,1.84,4.07,2.77,6.1.95,2.07,1.91,4.14,2.8,6.23-.34-.34-.66-.69-1.01-1.01-.43-.4-.86-.81-1.31-1.19-.43-.35-.86-.69-1.3-1.03-.9-.69-1.84-1.34-2.78-1.97-.91-.63-1.84-1.23-2.75-1.84-.97-.64-1.96-1.29-2.93-1.94-1.96-1.28-3.9-2.58-5.85-3.86-.55-.37-1.12-.71-1.68-1.07-.42-.26-.85-.52-1.27-.77-1.02-.62-2.02-1.25-3.03-1.86.01,0,.02,0,.03.01-1.2-.78-2.41-1.56-3.61-2.35-.04-.03-.09-.05-.13-.08.67-.78,1.21-1.68,1.48-2.74.93-3.66-1.36-7.69-5.1-8.56-3.73-.87-7.6,1.33-8.56,5.1-.93,3.66,1.36,7.69,5.1,8.56,2.29.53,4.55-.19,6.24-1.62.03.02.06.04.08.05-.02,0-.03-.02-.04-.03,1.64,1.07,3.26,2.15,4.91,3.18.92.57,1.83,1.13,2.75,1.69.75.45,1.49.93,2.23,1.39,1.29.86,2.57,1.71,3.86,2.56,1.33.88,2.68,1.76,4.02,2.65,1.35.89,2.71,1.79,4.06,2.71.64.44,1.28.9,1.92,1.35.58.43,1.14.88,1.7,1.34,0,0,0,0,0,0,.37.32.73.64,1.07.98.35.33.69.66,1.04,1,.59.59,1.17,1.19,1.74,1.8,0,0,0,0,0-.01.1.11.19.23.28.34.13.32.27.64.4.96.41,1.02.79,2.04,1.19,3.07.23.64.46,1.27.69,1.91-.02.51,0,1.03-.03,1.54-.01.4.25.75.58.95.01.01.04.03.06.04.08.05.16.08.24.1.01,0,.03-.01.04,0,1.27,3.73,2.55,7.47,3.73,11.23.77,2.48,1.52,4.96,2.25,7.44.29.97.55,1.95.82,2.92.29,1.03.59,2.05.85,3.07.29,1.12.57,2.23.87,3.35-.86-1.1-1.7-2.22-2.65-3.23-.83-.89-1.68-1.73-2.56-2.57-.75-.7-1.55-1.37-2.32-2.06-.84-.76-1.67-1.52-2.53-2.27-.52-.45-1.02-.92-1.55-1.35-.47-.39-.95-.77-1.44-1.15-.42-.33-.86-.63-1.3-.94-.38-.27-.75-.55-1.14-.8-1.11-.72-2.21-1.44-3.32-2.16-.96-.62-1.91-1.27-2.85-1.92-.52-.36-1.05-.7-1.57-1.06-.58-.39-1.16-.76-1.75-1.13.54-.72.96-1.54,1.19-2.46.94-3.7-1.37-7.76-5.14-8.64-3.78-.88-7.67,1.34-8.64,5.14-.94,3.7,1.37,7.76,5.14,8.64,2.1.49,4.18-.05,5.83-1.22.09.09.18.19.26.28.2.21.56.18.76-.02.22-.22.19-.54-.01-.76-.01-.01-.02-.02-.03-.03.37.28.73.58,1.08.88-.01-.02-.04-.03-.06-.06,1.56,1.4,3.12,2.79,4.74,4.11.93.77,1.86,1.52,2.8,2.27.7.56,1.39,1.13,2.09,1.7.84.74,1.68,1.48,2.5,2.23.79.74,1.57,1.48,2.36,2.22.82.76,1.65,1.52,2.46,2.28.75.7,1.47,1.44,2.18,2.18,1.72,1.89,3.36,3.84,4.87,5.9.8,1.12,1.58,2.28,2.23,3.49,0-.01,0-.02-.01-.03,0,.01.01.02.02.04.02.04.04.07.06.11-.02-.03-.03-.05-.04-.08.17.35.34.69.52,1.04h0c.23.9.45,1.8.68,2.7.56,2.21,1.23,4.4,1.87,6.59.46,1.56.86,3.13,1.27,4.7-.86,3.28-1.67,6.57-2.52,9.85-1.13,4.36-2.36,8.68-3.46,13.06-.48,1.88-.92,3.77-1.31,5.68-.48,2.36-.99,4.72-1.38,7.1-.35,2.12-.65,4.24-.95,6.36-.32,2.25-.68,4.51-1.04,6.76-1.24,6.59-2.64,13.15-3.93,19.74-1.33,6.73-2.83,13.44-4.01,20.2-.83,4.76-1.6,9.52-2.37,14.29-.63,3.87-1.32,7.74-1.97,11.61-.02-.19-.03-.37-.05-.56,0,.04,0,.08,0,.12-.24-2.65-.59-5.29-.98-7.91-.43-2.96-.89-5.93-1.38-8.88-.9-5.45-2.01-10.84-3.19-16.23.02-.03.08,0,.1-.04.1-.2.19-.39.19-.61,0-.19-.05-.38-.07-.55-.04-.42-.08-.83-.12-1.24,0,0,0,.01,0,.02-.02-.21-.02-.42-.03-.63.07-2.74.13-5.47.25-8.21,0,.07,0,.14,0,.21.01-.23.03-.46.04-.69.19-2.91.41-5.83.67-8.74.27-2.97.51-5.96.89-8.93.74-5.81,1.7-11.57,2.73-17.34,1.07-5.2,2.59-10.27,3.92-15.4,1.29-4.97,2.43-9.98,3.65-14.97.7-2.86,1.47-5.69,2-8.57.61-3.27.86-7.47-1.89-9.89-1.36-1.19-3.28-1.51-4.99-.95-1.51.49-2.69,1.65-3.39,3.05-1.11,2.2-1.24,4.64-1.27,7.06-.01,1.44.06,2.92.28,4.35.2,1.28.4,2.56.7,3.82-.24.94-.46,1.88-.65,2.83-.48,2.35-.88,4.72-1.16,7.11-.18,1.56-.3,3.14-.43,4.71-.21,1.04-.47,2.06-.66,3.1,0-.02,0-.05.01-.07-.02.12-.04.23-.06.34.02-.07.03-.16.05-.24-.73,3.93-1.19,7.9-1.59,11.87-.19,1.86-.34,3.73-.48,5.6-.15,1.89-.3,3.76-.38,5.66,0-.09,0-.16,0-.25,0,.1,0,.2-.01.3-.05.31-.04.63-.05.94-.02.38-.04.76-.06,1.14,0-.04,0-.08,0-.12-.02.38-.01.77-.03,1.15-.23,2.61-.44,5.22-.55,7.84-.18,4.31-.23,8.64-.28,12.97-.17-.94-.39-1.87-.56-2.81-1.09-6.26-2.23-12.53-3.93-18.65-.58-2.08-1.22-4.15-1.85-6.22-.05-.34-.1-.67-.15-1.01-.26-1.98-.66-3.94-.97-5.92-.32-2.1-.62-4.19-.91-6.29-.18-1.34-.42-2.66-.64-3.98.07-.03.15,0,.22-.04.53-.33.67-1,.37-1.54-.36-.64-.75-1.27-1.11-1.91-.01-.02-.03-.05-.04-.07-.3-1.8-.59-3.6-.82-5.41-.56-4.3-1.1-8.61-1.54-12.92,0,.03,0,.06,0,.09,0-.04,0-.08,0-.12,0-.08-.02-.15-.02-.23,0,.05.01.1.02.15-.21-2.66-.29-5.33-.44-8-.07-1.09-.12-2.18-.18-3.28.15-.45.19-.92.31-1.38,2.48.21,4.88-1.25,5.51-3.75.68-2.68-1-5.62-3.73-6.26-2.73-.64-5.56.97-6.26,3.73-.19.74-.16,1.49-.02,2.22-.07.07-.17.11-.23.19-.6.73-.6,1.69-.57,2.58.08,1.76.07,3.51.13,5.26.06,1.96.13,3.92.22,5.88.11,2.27.3,4.52.55,6.77-.74-1.66-1.46-3.33-2.25-4.97-.93-1.93-2-3.8-3-5.7.04.07.07.13.1.2-.22-.42-.44-.83-.66-1.24.04.06.07.13.11.19-.16-.3-.32-.59-.48-.89.04.06.07.13.1.19-.62-1.22-1.27-2.44-1.82-3.7-.55-1.25-1.07-2.5-1.58-3.77-1.2-3.31-2.28-6.66-3.1-10.08-.12-.58-.3-1.15-.43-1.72,3.71-.4,7.01-2.91,7.98-6.75,1.21-4.77-1.77-10.01-6.64-11.14-4.87-1.13-9.89,1.73-11.14,6.64-1.22,4.77,1.77,10.01,6.64,11.14.07.02.14,0,.22,0,.2,1.97.54,3.93,1.06,5.84.31,1.15.61,2.31.97,3.44.38,1.2.77,2.39,1.19,3.58.38,1.07.81,2.12,1.26,3.16.46,1.06.92,2.11,1.47,3.12,1.03,1.95,2.09,3.89,3.21,5.79,1.14,1.95,2.25,3.91,3.32,5.89-.03-.06-.05-.11-.08-.17.83,1.65,1.66,3.29,2.48,4.96.35.71.71,1.43,1.07,2.14.33.66.7,1.3,1.06,1.94.24,1.67.48,3.35.78,5.01.4,2.23.92,4.42,1.41,6.63.59,2.8,1.09,5.62,1.74,8.42.57,2.45,1.19,4.89,1.77,7.34.19,2.83.41,5.66.8,8.47.42,3.05,1.05,6.04,1.5,9.08.47,3.1.85,6.19,1.19,9.31.65,5.97,1.4,11.91,2.31,17.85-.81-1.56-1.63-3.12-2.36-4.72-.18-.4-.34-.82-.52-1.22-.44-1.1-.83-2.22-1.28-3.31-.54-1.29-1.13-2.55-1.7-3.82-.6-1.53-1.2-3.07-1.78-4.61-.79-2.11-1.56-4.22-2.43-6.3-.93-2.25-1.94-4.47-3.03-6.64-.39-.78-.82-1.54-1.22-2.31-.59-1.36-1.19-2.71-1.73-4.1.01.03.02.07.03.1-.02-.04-.03-.09-.04-.13-.02-.04-.03-.08-.04-.12.01.04.03.07.04.11-.96-2.75-1.72-5.54-2.51-8.34-.7-2.46-1.43-4.92-2.26-7.34-.88-2.53-1.87-5.02-2.91-7.5-.94-2.24-1.85-4.5-2.75-6.76-.93-2.35-2.03-4.6-3.2-6.83.08.15.16.3.24.45-1.07-2.03-2.07-4.09-2.9-6.22-.18-.53-.33-1.07-.47-1.6-.09-.46-.16-.93-.22-1.39-.13-1.87-.13-3.75-.27-5.62-.16-2.24-.3-4.56-.97-6.72-.5-1.64-1.27-3.17-2.2-4.6.93-.96,1.35-2.39.75-3.71-.13-.28-.3-.58-.46-.85-.49-.82-1.33-1.31-2.1-1.83-.79-.54-1.64-.87-2.51-1.27-1.89-.86-4.22.29-4.97,2.15-.51,1.27-.21,2.58.54,3.6-.36.82-.43,1.72-.36,2.6.04.59.11,1.18.22,1.76.49,2.38,1.28,4.68,2.05,6.98.38,1.15.78,2.29,1.14,3.45.27.91.54,1.82.84,2.72-.02.32-.03.63-.04.95-.09,2.51.59,5.03,1.62,7.29.94,2.09,2.07,4.09,3.3,6.02,1.17,1.81,2.26,3.66,3.3,5.55-.08-.14-.15-.29-.22-.42.18.34.36.68.53,1.02.02.04.04.08.06.12-.02-.03-.03-.06-.05-.08.02.04.05.08.07.13.15.41.23.83.38,1.23-.04-.1-.07-.2-.11-.29.08.21.15.42.23.63,0-.02-.02-.04-.02-.07.03.07.05.14.08.21.01.03.02.06.03.09,0,0,0-.02,0-.02.03.08.06.16.09.24.05.14.1.28.16.42,0,0,0,0,0-.01.27.72.53,1.44.8,2.16,0,0,0,0,0,.01.01.03.02.07.04.1,0-.02-.01-.04-.02-.05.01.03.03.07.04.1.01.04.03.08.04.12,0-.03-.02-.05-.03-.08.01.03.02.05.03.08,0-.03-.02-.05-.03-.08.01.04.03.07.04.11.01.04.03.07.04.11,0-.02-.02-.05-.03-.08.27.75.55,1.5.83,2.25-.04-.1-.07-.2-.12-.3.07.18.14.37.21.55,0,.02.01.03.02.05,0,0,0,.02.01.03.02.04.03.09.05.13-.01-.04-.03-.08-.04-.12.02.05.03.09.05.14-.02-.05-.03-.09-.05-.14.42,1.14.84,2.3,1.27,3.44,0-.01,0-.03-.01-.04.82,2.25,1.7,4.47,2.57,6.68.84,2.14,1.82,4.22,2.76,6.32.42.95.91,1.87,1.39,2.79.64,1.22,1.28,2.44,1.96,3.66,1.06,1.92,2.16,3.83,3.21,5.76,1.22,2.38,2.38,4.79,3.39,7.28.32.79.66,1.58.99,2.37-.36-.4-.71-.81-1.07-1.2-1.26-1.39-2.51-2.79-3.72-4.23-.66-.79-1.3-1.61-1.96-2.42-.41-.51-.81-1.05-1.24-1.54-.4-.46-.79-.92-1.19-1.37-.34-.4-.7-.78-1.06-1.16-.35-.38-.7-.77-1.08-1.13-.5-.48-.99-.98-1.51-1.44-.48-.43-.95-.87-1.43-1.3-1.7-1.54-3.44-3.04-5.19-4.53-1.72-1.46-3.5-2.87-5.25-4.29,0,0,0,0,0,0h0s0,0,0,0c0,0-.01,0-.02-.01-.49-.41-.97-.82-1.46-1.23-.09-.08-.18-.17-.27-.25.94-.41,1.71-1.16,1.97-2.23.45-1.78-.66-3.74-2.48-4.16-1.81-.42-3.7.65-4.16,2.48-.43,1.71.6,3.55,2.29,4.07.05.11.05.24.15.34.82.8,1.69,1.57,2.53,2.35.77.71,1.53,1.43,2.3,2.14,1.52,1.42,2.98,2.89,4.48,4.32.9.85,1.81,1.68,2.72,2.51.7.64,1.42,1.24,2.13,1.87.52.45,1.03.91,1.54,1.36.39.35.78.73,1.16,1.08.7.66,1.38,1.37,2.06,2.06,0-.01-.02-.02-.03-.03.02.02.04.04.05.06.02.02.03.03.05.05-.01-.01-.02-.02-.04-.03,1,1.11,2.01,2.21,3,3.31.97,1.07,1.98,2.1,2.99,3.12.92.93,1.87,1.84,2.8,2.76.58.58,1.16,1.15,1.74,1.73.27.27.53.56.79.84.94,2.27,1.85,4.55,2.83,6.8.88,2.01,1.81,4,2.83,5.95,1.09,2.1,2.23,4.17,3.35,6.25.97,1.85,1.91,3.7,2.76,5.61.42.96.78,1.94,1.17,2.91.25,1.69.47,3.38.74,5.07,1.03,6.31,2.14,12.6,3.2,18.9.53,3.14.92,6.31,1.33,9.47.22,1.6.35,3.21.53,4.8.08.79.18,1.57.26,2.35.09.95.16,1.91.34,2.85-.08.32-.15.64-.25.96-.59,1.81-1.22,3.62-1.59,5.48-.17.84-.33,1.7-.5,2.54-.38,1.93-.74,3.86-1.16,5.79-2.18,10.27-3.53,20.73-5.06,31.12-1.44,9.75-2.86,19.5-4.13,29.28-2.73,21.22-4.59,42.5-6.13,63.85-1.44,20.07-2.99,40.15-4.74,60.2-.12,1.38-.27,2.76-.4,4.14-.14-.29-.29-.58-.43-.87-.59-1.28-1.11-2.59-1.61-3.92-.53-1.53-1.02-3.07-1.48-4.63-.42-1.39-.76-2.79-1.13-4.19,0,.02,0,.04,0,.05-.22-1.05-.46-2.09-.69-3.14-.19-.87-.32-1.74-.47-2.61-.13-.78-.27-1.55-.36-2.33-.09-.87-.18-1.76-.27-2.63-.05-1.02-.14-2.04-.11-3.05.02-.93.05-1.86.07-2.8.29-4.24.69-8.47,1.27-12.68.27-1.99.58-3.97.83-5.95.29-2.3.55-4.6.75-6.91.13-1.4.16-2.79.2-4.19.03-1.39-.04-2.78-.1-4.17-.07-1.44-.26-2.87-.42-4.31-.15-1.31-.41-2.6-.71-3.89-.38-1.6-.83-3.2-1.46-4.73-.67-1.63-1.5-3.17-2.65-4.52-.86-1.01-2.05-1.93-3.39-2.17-1.23-.22-2.53.16-3.31,1.18-.66.88-1.04,1.93-1.32,2.98-.73,2.73-.98,5.56-1.21,8.37-.24,2.72-.25,5.48-.3,8.21-.06,2.7,0,5.41.05,8.11.05,2.77.21,5.54.35,8.32.03.53.05,1.05.07,1.56-.61-1.47-1.21-2.95-1.82-4.43-.7-1.66-1.45-3.31-2.33-4.88-.87-1.54-1.76-3.08-2.62-4.63-.49-.96-.96-1.93-1.42-2.92-.41-.92-.76-1.85-1.13-2.79-.27-.81-.57-1.6-.8-2.43-.24-.87-.48-1.74-.72-2.62-.5-2.29-.98-4.55-1.21-6.89-.06-.96-.08-1.91-.04-2.87.07-1,.2-1.98.36-2.95.28-1.45.59-2.89.92-4.34.63-2.71,1.22-5.41,1.78-8.13.57-2.79.97-5.62,1.38-8.43.38-2.62.65-5.25.87-7.88.12-1.41.17-2.81.22-4.22.09-2.84.04-5.77-.52-8.57-.58-2.9-1.56-6.09-4.53-7.32-2.84-1.17-5.89,1-7.68,3.03-1.08,1.24-1.85,2.76-2.4,4.31-.56,1.6-.98,3.23-1.27,4.9-.24,1.42-.46,2.85-.54,4.3-.05.88-.11,1.77-.16,2.65-.16,2.65-.08,5.32,0,7.98.03,1.2.07,2.41.14,3.61.07,1.44.12,2.88.24,4.32,0-.05-.02-.11-.02-.16.09,1.23.19,2.47.3,3.7.08.9.12,1.8.22,2.7.01.11.02.21.04.32-.28-.75-.57-1.49-.85-2.25-.61-1.79-1.23-3.57-1.78-5.37-.54-1.8-1.01-3.61-1.48-5.43-.3-1.38-.6-2.77-.86-4.16-.46-2.48-.9-4.96-1.29-7.45-.4-2.54-.75-5.09-1.21-7.62-.35-1.94-.74-3.88-1.13-5.81-.01-1-.02-2.01-.01-3.01,0-.92.02-1.85.04-2.79.84-1.2,1.75-2.34,2.69-3.46-.09.11-.19.22-.28.32,2.79-3.31,5.6-6.64,7.75-10.4,2.7-4.74,4.78-9.91,5.39-15.38.31-2.79.37-5.62.07-8.42-.16-1.46-.46-2.88-.9-4.28-.4-1.3-.94-2.55-1.5-3.79-.75-1.67-1.76-3.31-2.94-4.7-.93-1.08-2.24-2.19-3.67-2.46-1.18-.22-2.51-.2-3.56.5-1.04.71-1.78,1.6-2.32,2.74-.32.65-.58,1.32-.8,2-.38,1.17-.72,2.34-.99,3.53-.6,2.68-1.12,5.39-1.42,8.12-.33,2.99-.48,5.97-.6,8.97-.19,5.09-.36,10.2-.53,15.29,0,.19-.01.37-.02.56-.71-3.32-1.44-6.63-2.08-9.96-.41-2.14-.76-4.29-1.15-6.43-.43-2.42-.93-4.82-1.45-7.21,0,.03,0,.04,0,.07-.25-1.1-.51-2.2-.76-3.31,0,.04.02.07.03.11-.26-1.2-.55-2.4-.83-3.62h0c-.27-1.22-.55-2.44-.83-3.65-1.1-4.93-2.46-9.81-3.84-14.67-.39-1.37-.8-2.74-1.21-4.1-.33-1.05-.66-2.13-1.09-3.15-.55-1.3-1.13-2.56-1.75-3.83-.63-1.3-1.31-2.59-2.02-3.85-.78-1.39-1.67-2.76-2.82-3.88-.97-.94-2.01-1.84-3.15-2.54-1.12-.69-2.37-1.24-3.71-1.12-1.18.11-2.18.59-3.06,1.39-1.03.95-1.67,2.25-2.15,3.55-.5,1.38-.79,2.9-.89,4.35-.11,1.61-.09,3.23.32,4.81.37,1.46.95,2.83,1.7,4.14,1.55,2.69,3.59,5.07,5.59,7.43,1.59,1.87,3.19,3.71,4.67,5.67,1.46,2.09,2.81,4.24,4.02,6.5.64,1.29,1.22,2.6,1.77,3.94.76,2.15,1.39,4.33,1.98,6.53.59,2.24,1.21,4.47,1.78,6.71.58,2.25,1.17,4.49,1.78,6.73.28,1.05.55,2.11.82,3.17.21.84.49,1.66.69,2.5.08.39.14.79.22,1.19.14.63.33,1.24.52,1.85.32,1.07.68,2.12,1.03,3.17.59,1.77,1.17,3.55,1.75,5.32-.35-.7-.69-1.41-1.07-2.1-1.32-2.37-2.69-4.7-4.25-6.93-.82-1.16-1.62-2.34-2.49-3.45-.85-1.08-1.65-2.2-2.55-3.22-1.01-1.15-1.99-2.35-3.04-3.47-2.51-2.64-5.23-5.08-8.37-6.93-1.38-.82-2.84-1.53-4.35-2.09-.97-.36-1.95-.76-2.96-1.02-1.38-.37-2.87-.42-4.14.32-1.22.7-2.12,1.86-2.66,3.15-.72,1.7-1.01,3.51-1.16,5.35-.12,1.64-.21,3.32-.01,4.96.21,1.76.62,3.58,1.38,5.2.72,1.54,1.66,2.9,2.82,4.14,1.97,2.1,4.33,3.8,6.74,5.36.58.39,1.15.81,1.76,1.15.71.39,1.4.78,2.1,1.18,2.35,1.33,4.82,2.43,7.24,3.59,2.32,1.12,4.53,2.38,6.7,3.75.78.54,1.54,1.09,2.28,1.71.71.61,1.36,1.24,2,1.91,1.02,1.14,1.94,2.34,2.83,3.57.7,1.08,1.37,2.15,2.03,3.25.29.55.61,1.11.85,1.68.29.66.56,1.32.84,1.97.35,1,.69,1.98.98,2.98.28.95.52,1.9.75,2.86.09.42.17.84.25,1.26.23,1.38.45,2.77.71,4.15-3.24-2.97-6.97-5.51-10.9-7.44-4.04-1.97-8.28-3.48-12.6-4.68-1.18-.33-2.35-.63-3.54-.9-1.03-.24-2.11-.58-3.16-.64-.62-.04-1.24-.08-1.85.1-.59.17-1.11.48-1.57.88-.92.83-1.27,2.26-1.16,3.45.14,1.48.66,2.91,1.43,4.17,1.81,3.01,4.5,5.44,7.31,7.5,3,2.2,6.21,4.09,9.69,5.43,1.24.48,2.48.95,3.73,1.4,2.46.9,4.92,1.82,7.31,2.91.69.35,1.35.72,2.02,1.14.57.38,1.12.79,1.65,1.22.86.75,1.65,1.56,2.45,2.39.7.86,1.37,1.73,2.04,2.63,1.66,2.48,3.16,5.06,4.76,7.58,1.53,2.42,3.2,4.75,4.88,7.06.56.77,1.17,1.64,1.96,2.2.08.16.16.32.24.48,2.17,4.49,4.32,9.02,6.8,13.35,1.1,1.92,2.23,3.82,3.36,5.72-.32-.2-.64-.38-.95-.58-3.91-2.62-7.8-5.34-11.81-7.82-1.16-.72-2.31-1.48-3.5-2.16-1.2-.69-2.38-1.43-3.62-2.05-2.5-1.27-4.99-2.53-7.59-3.6-1.25-.51-2.49-1-3.76-1.46-1.12-.42-2.21-.81-3.42-.84-.99-.03-1.99.63-2.51,1.43-1.6,2.5-.12,5.7,1.55,7.76,1.91,2.34,4.31,4.28,6.84,5.9,1.03.66,2.05,1.33,3.09,1.98-.07-.05-.14-.09-.22-.15,1.46.96,3.01,1.81,4.56,2.62.82.42,1.63.87,2.47,1.26.85.38,1.69.81,2.56,1.14,1.8.7,3.62,1.34,5.43,2,.89.32,1.81.61,2.69.98.83.35,1.66.7,2.49,1.05,1.62.79,3.21,1.6,4.75,2.55,1.03.67,2.02,1.4,2.97,2.18.95.83,1.83,1.72,2.71,2.61,1.21,1.33,2.33,2.7,3.43,4.1.22.31.46.63.68.95,0-.01-.02-.02-.03-.03.79,1.18,1.56,2.36,2.25,3.6-.01-.02-.02-.05-.04-.07.24.43.46.82.79,1.2.08.09.2.12.28.2.01.04.03.07.04.11.64,1.74,1.3,3.48,1.95,5.21.47,1.36.87,2.74,1.3,4.1.67,2.09,1.24,4.23,1.84,6.35.31,1.1.62,2.2.93,3.29-.38-.29-.74-.6-1.13-.89-1.33-.99-2.65-2.01-4.02-2.96-1.46-1-2.88-2.04-4.37-2.99-1.61-1.01-3.21-2.04-4.81-3.07.03.02.06.04.08.06-2.03-1.29-4.08-2.54-6.13-3.82-2.2-1.35-4.38-2.76-6.65-4-2.27-1.25-4.54-2.52-6.89-3.6-1.33-.62-2.67-1.22-4.02-1.8-.54-.23-1.07-.48-1.64-.67-.53-.17-1.09-.41-1.66-.4-.55,0-1.09.09-1.57.39-.43.26-.72.52-1.03.91-.38.47-.44,1.15-.4,1.73.04.61.25,1.18.48,1.75.61,1.49,1.51,2.81,2.41,4.13,1.31,1.92,2.72,3.77,4.17,5.59,1.36,1.72,2.7,3.44,4.21,5.01,2.53,2.61,5.47,4.79,8.62,6.6,3.1,1.78,6.38,3.22,9.68,4.58,2.35.97,4.69,1.94,7,3.02.97.51,1.94,1.02,2.87,1.6.69.46,1.35.95,1.99,1.46.55.48,1.07.98,1.58,1.5,1.07,1.22,2.13,2.46,3.08,3.77,0-.01-.02-.03-.02-.04.02.03.04.06.07.09,0,.01.01.02.02.03h0c1.49,2.11,2.79,4.37,4.2,6.55.07,1.01.13,2.02.1,3.03,0,.23-.01.46-.02.69-.15,1.5-.28,3-.43,4.5-.97,9.32-2.06,18.62-3.13,27.92-1.23,10.78-2.46,21.57-3.73,32.36-1.25,10.62-2.2,21.27-3.12,31.93-.84,9.74-1.34,19.51-1.84,29.27-.5,9.83-.97,19.7-.94,29.55,0,4.23.04,8.47.06,12.71-.47-1.17-.91-2.34-1.37-3.52-1.22-3.09-2.41-6.2-3.57-9.31-.78-2.58-1.54-5.16-2.36-7.72-.87-2.69-1.72-5.4-2.77-8.03-2.07-5.16-4.79-10.02-6.82-15.2-1.72-4.78-3.22-9.64-4.66-14.52.75,1.12,1.53,2.22,2.23,3.37t.01.01s.04,0,.03-.04c-1.39-5.05-2.98-10.12-5.59-14.65-2.11-7.24-4.34-14.43-7.43-21.33-.27-.6-.66-1.14-.95-1.73.01-.47.06-.94.06-1.41-.02-2.66-.01-5.32.03-7.99.03-.55.09-1.11.02-1.66-.09-.7-.21-1.4-.34-2.09-.1-.56-.22-1.11-.32-1.67-.21-1.12-.43-2.25-.64-3.38-.45-2.41-.88-4.82-1.36-7.22-.53-2.65-1.1-5.29-1.7-7.92-.52-2.29-1.24-4.54-1.94-6.78-1.43-4.61-3.57-8.99-5.49-13.41-1.92-4.41-3.64-8.89-5.57-13.3-1.91-4.39-3.96-8.73-5.88-13.12-1.94-4.44-3.79-8.94-6.02-13.24,0,0,0,0,0,0-.01-.02-.02-.04-.03-.06,0,.02.01.03.02.04-.03-.05-.06-.11-.09-.17-.04-.08-.08-.16-.12-.24,0,0,0,.01,0,.02-1.51-2.87-3.05-5.72-4.78-8.46-1.67-2.66-3.33-5.32-4.95-8-3.11-5.16-5.64-10.67-8.88-15.75-2.61-4.11-5.44-8.08-8.3-12.01-2.94-4.05-6.04-7.93-9.37-11.66-6.41-7.14-13.18-13.97-19.73-20.99-3.02-3.3-6.01-6.62-8.93-10-2.73-3.15-5.18-6.52-7.61-9.91-1.17-1.68-2.34-3.35-3.53-5.02-1.39-1.94-2.88-3.77-4.44-5.57-1.74-2.01-3.73-3.74-5.72-5.49-2-1.76-4.19-3.34-6.32-4.94-1.85-1.39-3.71-2.79-5.65-4.04-2.46-1.6-4.91-3.19-7.6-4.39-2.54-1.13-5.09-2.24-7.77-3-4.55-1.29-9.14-2.45-13.66-3.85-2.03-.75-4.02-1.53-6.02-2.35-3.72-1.81-7.34-3.81-10.98-5.78-3.78-2.05-7.65-3.94-11.27-6.26-.06-.04-.13-.08-.19-.12.02.01.03.03.05.04-3.21-2.07-6.37-4.17-9.81-5.86-2.25-1.09-4.63-2.02-7.04-2.61-2.35-.57-4.75-.95-7.14-1.34-1-.16-2-.35-3.01-.45-1.3-.13-2.33.27-3.46.87-1.07.56-1.67,1.66-2.12,2.72-.53,1.22-.52,2.82-.29,4.1.24,1.35.56,2.67,1.01,3.97.64,1.89,1.38,3.73,2.23,5.53,2.14,4.58,4.44,9.08,6.62,13.65,2.1,4.38,4.07,8.81,5.89,13.32,3.85,9.56,7.55,19.25,12.68,28.21.61,1.08,1.18,2.23,1.87,3.26.77,1.15,1.55,2.29,2.32,3.44,1.41,2.08,2.93,4.07,4.43,6.08,2.85,3.79,5.67,7.59,8.42,11.46-.02-.04-.05-.07-.07-.11,2.59,3.77,5.13,7.57,7.69,11.37,2.81,4.17,5.77,8.27,8.37,12.57,2.52,4.14,4.94,8.34,7.44,12.5,1.41,2.35,2.84,4.67,4.35,6.96,1.42,2.18,2.95,4.29,4.46,6.4,2.93,4.07,6.23,7.84,9.51,11.63,1.62,1.88,3.37,3.65,5.06,5.47,1.55,1.66,3.16,3.3,4.81,4.86,3.43,3.27,6.93,6.48,10.41,9.7,3.81,3.54,7.62,7.09,11.2,10.85,3.41,3.59,6.73,7.28,10.25,10.77,3.59,3.55,7.37,6.81,11.39,9.88,4.04,3.08,8.23,5.96,12.34,8.95,4.01,2.9,7.88,5.97,11.89,8.86,3.91,2.82,8.05,5.34,12.15,7.87.91.59,1.84,1.18,2.75,1.76,1.92,1.25,3.71,2.68,5.5,4.1,1.66,1.53,3.29,3.08,4.88,4.68.62.67,1.24,1.34,1.86,2.01-.02-.02-.04-.05-.06-.07,3.12,3.38,6.15,6.85,9.6,9.9,3.08,2.73,6.3,5.26,9.54,7.8.16.4.33.79.48,1.2,1.62,4.6,3.04,9.25,4.73,13.81-.02-.04-.04-.09-.06-.13,2.16,5.88,4.5,11.71,6.82,17.53,1.09,2.71,2.1,5.48,3.36,8.12,1.38,2.9,2.93,5.71,4.43,8.54,1.35,2.68,2.51,5.41,3.57,8.23.89,2.52,1.78,5.05,2.57,7.6.44,1.39.81,2.82,1.34,4.18.57,1.49,1.15,2.98,1.73,4.47,2.04,5.3,4.15,10.58,6.24,15.87,1.93,5.3,3.82,10.64,5.29,16.09.09,8.83.18,17.66.36,26.49.21,9.97.57,19.94.86,29.91.14,4.9.22,9.79.44,14.68.23,4.79.31,9.59.68,14.37.05.62.1,1.23.15,1.85-.96.19-1.95.24-2.88.51-1.11.33-2.27.64-3.34,1.11-1.07.47-2.19.88-3.23,1.42-2.16,1.12-4.43,2.13-6.34,3.67-.09.05-.17.1-.25.15-1.28.77-2.59,1.5-3.83,2.31-1.39.91-2.77,1.82-4.16,2.73-1.24.81-2.43,1.67-3.65,2.52-2.43,1.67-4.8,3.42-7.03,5.36-3.48,3.02-6.74,6.27-10.02,9.5-1.98,1.95-3.91,3.94-5.93,5.85-.59.55-1.22,1.09-1.77,1.7-.55.61-1.03,1.25-1.49,1.94-.79,1.22-1.45,2.52-2.15,3.79-.73,1.33-1.47,2.64-2.2,3.97-1.34,2.43-2.68,4.87-4.01,7.31-1.41,2.59-2.77,5.2-4.13,7.8-.55,1.04-1,2.12-1.49,3.18-.5,1.1-1.04,2.17-1.49,3.29-.7,1.69-1.39,3.38-2.08,5.08-.46,1.11-.85,2.25-1.26,3.38-.44,1.24-.92,2.48-1.32,3.73-.54,1.71-1.08,3.42-1.62,5.13-.78,2.46-1.43,4.97-2.06,7.47-.7,2.8-1.4,5.62-1.94,8.46h0s-.01.09-.03.15v.02c-.02.13-.04.24-.07.36v-.02c-.25,1.39-.5,2.76-.76,4.14v-.02c-.01.1-.03.2-.05.3l.02-.09c-.34,1.78-.56,3.59-.82,5.38-.27,1.79-.46,3.58-.69,5.37-.46,3.55-.73,7.13-1.03,10.7-.25,2.93-.4,5.86-.56,8.79-.15,2.71-.29,5.43-.35,8.13-.06,2.92-.13,5.85.08,8.77.2,2.76.42,5.52.81,8.26.4,2.83.96,5.6,1.74,8.36.38,1.37.88,2.78,1.52,4.05.46.91,1.25,1.79,2.26,2.06l.09.02c.95.22,2.12-.07,2.94-.52,1.43-.77,2.68-1.92,3.84-3.06.85-.84,1.67-1.72,2.48-2.62,1.01-1.14,2.02-2.28,3.04-3.42,1.03-1.15,2.06-2.29,3.12-3.43.89-.97,1.85-1.88,2.78-2.81,1.24-1.13,2.49-2.24,3.78-3.28,1.34-1.08,2.73-2.08,4.11-3.1,0,0,0,0,0,0,1.04-.73,2.07-1.45,3.1-2.18-.04.03-.09.07-.14.1.09-.06.18-.12.27-.19-.05.03-.09.06-.14.1,1.04-.73,2.08-1.46,3.12-2.2-.05.03-.1.07-.15.1,2.36-1.66,4.59-3.49,6.85-5.28,2.14-1.71,4.23-3.49,6.34-5.23,2.12-1.76,4.27-3.49,6.43-5.21,2.09-1.65,4.23-3.21,6.37-4.78,4.41-3.07,8.91-6.01,13.53-8.76,4.91-2.92,9.91-5.64,14.97-8.32-.01,0-.02.01-.03.02,1.19-.63,2.38-1.27,3.57-1.9.53,4.09,1.04,8.17,1.53,12.27.71,7.51,1.43,15.01,2.14,22.52.74,7.8,1.56,15.61,2.02,23.43.92,15.76,1.51,31.54,2.92,47.27.48,5.31,1.19,10.62,1.83,15.93.6,5.06,1.13,10.15,1.69,15.22,1.12,10.19,2.81,20.41,5.39,30.33,1.3,4.98,2.79,9.89,4.72,14.67,1.78,4.43,3.87,8.67,6.09,12.9,2,3.82,3.85,7.72,5.81,11.56,1.18,2.31,2.41,4.59,3.71,6.82.81,1.43,1.67,2.78,2.64,4.11,1.45,2,3.8,3.05,6.14,3.59.08.02.16.04.24.05,2.17.47,4.42.28,6.45-.65,1.63-.74,2.83-1.87,3.95-3.22,3.69-4.5,2.57-10.93.52-15.88-.96-2.32-2.09-4.55-3.67-6.51-.74-.91-1.51-1.79-2.3-2.65-.96-2.53-1.97-5.04-3.08-7.5-2.54-5.63-5.18-11.17-7.45-16.92-1.71-4.92-3.11-9.89-4.37-14.95-1.17-5.5-2.18-10.99-2.99-16.56-.82-5.64-1.57-11.3-2.38-16.94-.74-5.16-1.71-10.28-2.41-15.44-.23-1.72-.42-3.44-.64-5.16.79-3.44,1.71-6.83,2.59-10.24,1-3.8,1.78-7.63,2.52-11.48.81-4.22,1.63-8.43,2.51-12.63.84-4.06,1.77-8.14,2.86-12.13,1.12-4.09,2.31-8.15,3.59-12.19,1.24-3.91,2.46-7.82,3.61-11.75,2.42-8.2,4.79-16.4,7.39-24.54.71-2.17,1.46-4.34,2.19-6.51.04.02.07.05.11.06.16.05.31.1.46.13.35.08.7.11,1.06-.02.25-.09.51-.18.76-.26.96-.34,1.92-.67,2.89-1.01,1.28-.45,2.57-.91,3.86-1.36,2.82-1.01,5.65-1.99,8.49-2.97,2.74-.94,5.4-2.08,8.04-3.27,1.3-.59,2.66-1.16,3.9-1.88.73-.42,1.45-.84,2.18-1.26.61-.36,1.2-.79,1.79-1.18,2.45-1.62,4.76-3.47,7.06-5.29,2.34-1.85,4.68-3.71,6.98-5.62,2.35-1.95,4.65-3.94,6.88-6.01,2.24-2.1,4.48-4.2,6.73-6.29-.03.03-.06.06-.09.07.95-.87,1.9-1.74,2.85-2.62-.09.08-.18.17-.27.25.3-.27.6-.55.89-.82-.04.03-.09.07-.13.11,1.56-1.44,3.07-2.91,4.55-4.43,1.5-1.55,2.82-3.26,4.16-4.94,1.26-1.58,2.35-3.29,3.47-4.96,1.05-1.57,2.04-3.19,3.02-4.82,3.12-5.2,6.07-10.52,8.8-15.94,1.43-2.85,2.73-5.79,4.04-8.7,1.27-2.8,2.47-5.63,3.67-8.46,2.37-5.57,4.55-11.23,6.66-16.9,1.05-2.82,2.16-5.62,3.3-8.39,1.06-2.58,2.26-5.09,3.43-7.6,0,0,0,0,0,.01.03-.07.06-.13.1-.2.03-.05.05-.1.07-.16,0,.02-.02.05-.03.07.35-.74.7-1.49,1.05-2.23.02-.03.03-.07.05-.1.02-.03.03-.05.04-.09v.02c.34-.74.7-1.49,1.04-2.24-.01.01-.02.04-.03.05.9-1.89,1.77-3.79,2.59-5.72.87-2.04,1.78-4.07,2.55-6.15,1.61-4.38,3.19-8.77,4.62-13.2-.03.1-.06.19-.09.29.84-2.58,1.69-5.16,2.5-7.75,3.75-11.84,7.3-23.72,11.05-35.56.32-.96.66-1.91.99-2.87.97-1.92,1.92-3.85,2.9-5.76,1.95-3.82,3.9-7.64,5.77-11.51,1.85-3.83,3.55-7.75,4.77-11.83.59-1.97,1.22-3.96,1.71-5.96.51-2.05.97-4.09,1.4-6.16ZM1024.37,1186.2c.44-1.59.9-3.17,1.36-4.74.85-2.65,1.89-5.84,3.04-9.04,1.06-2.94,2.2-5.84,3.34-8.74,5.25-13.31,10.29-27.29,15-41.54l.29-.88c2.24-6.78,4.54-13.79,7.17-20.56,1.59-4.09,3.12-7.91,4.68-11.66,1.06-2.55,2.19-5.05,3.32-7.56l.9-2.03.7-1.43c1.27-2.58,2.58-5.25,3.99-7.81l.77-1.43c.59-1.1,1.2-2.2,1.84-3.26,1.01-1.68,2.04-3.36,3.06-5.03,3.58-5.52,7.44-10.96,11.18-16.22l1.03-1.44,1.27-1.79c1.74-2.44,3.48-4.88,5.17-7.35,2.35-3.46,4.68-6.93,6.97-10.44,1.87-2.89,3.71-5.89,5.46-8.78l.14-.21c1.6-2.64,3.23-5.28,4.86-7.92l1.22-1.98,2.16-3.32c1.33-2.04,2.66-4.09,4.01-6.13,1.81-2.75,3.69-5.46,5.57-8.16l.51-.73c2.19-3.18,4.17-6.04,6.09-9.03,1.89-2.97,4.04-6.33,5.92-9.73l1.08-1.96c1.51-2.71,3.06-5.51,4.42-8.34,1.73-3.58,3.36-7.14,4.96-10.88,1.49-3.43,2.86-6.93,4.17-10.31,1.31-3.34,2.6-6.68,3.82-10.05,2.38-6.6,5.13-13.33,8.42-20.58v.06s.02-.03.02-.05c0,.39,0,.79.01,1.18l.04,1.43v.65c.06,3.63.13,7.18.4,10.7.36,4.34.7,7.84,1.08,11.01.23,1.87.5,3.72.77,5.59.27,1.86.53,3.72.76,5.58l-.04-.2c0,.05.01.11.02.17l.08.52c.06.51.11,1.02.15,1.52.62,6.54,1.3,14.28,1.64,22.13.12,2.36.14,4.73.18,7.09.02,1.2.03,2.4.06,3.59.04,1.97.08,3.94.1,5.91.02,1.83-.02,3.66-.06,5.48l-.02-.19c0,.06,0,.13,0,.19,0-.07,0-.13,0-.2v-.05c-.01.06-.02.12-.02.18,0,.3-.02.61-.04.91-.06.83-.11,1.66-.22,2.47l-.18,1.16-.36,2.4c-.52,2.62-1.15,5.66-1.96,8.59-.76,2.73-1.54,5.46-2.35,8.18l-.43,1.3c-.79,2.39-1.61,4.86-2.57,7.22-1.2,2.89-2.44,5.75-3.71,8.6l-.2.41c-1.35,2.84-2.73,5.78-4.27,8.58-1.87,3.4-3.61,6.44-5.31,9.29-3.7,6.23-7.43,12.45-11.16,18.66l-.13.2-.37.58-.19.31-.96,1.52-.12.17-.04.05c-.04.07-.08.13-.13.2l-.07.15-.12.2-.43.68-.17.26-.19.27h.01s-.04.07-.05.09h0s0,.02-.01.03c-.92,1.47-1.81,2.84-2.7,4.22-1.34,2.07-2.68,4.14-3.98,6.25-2.39,3.88-4.75,7.79-7.09,11.7-3.9,6.51-7.51,12.65-11.03,18.74l-1.59,2.78c-1.27,2.24-2.55,4.48-3.88,6.69-1.97,3.3-3.99,6.59-6.04,9.85,0,0-.09.14-.11.14,0,0,0,0,0,0-.02.04-.04.07-.07.11.02-.03.03-.06.04-.08h0c-.24.37-.48.73-.72,1.09l-1.34,2.08c-1.22,1.85-2.44,3.7-3.64,5.56-4.12,6.4-8.39,13.01-12.81,19.38-4.32,6.24-9.16,12.26-13.36,17.42l-1.35,1.58c-1.15,1.34-2.29,2.68-3.51,3.97l-.99,1.06c-1.56,1.67-3.12,3.35-4.75,4.96-3.52,3.51-7.29,7.15-11.85,11.45l-.83.77c-3.13,2.87-6.38,5.84-9.86,8.42l-.31.24c-1.21.83-2.56,1.66-4.03,2.49-1.67.86-3.22,1.59-4.74,2.2-.75.28-1.52.54-2.28.77h0s0,0,0,0c0,0,0-.01-.01-.01v-.02c2.33-3.35,4.64-6.69,6.96-10.03,2.66-3.85,5.33-7.71,8.04-11.52l2-2.82c2.02-2.85,4.04-5.7,6.01-8.59,2.72-4,5.18-8.14,7.24-11.65,2.23-3.83,4.56-8,7.32-13.14l1.97-3.69c1.44-2.72,2.88-5.43,4.37-8.12,1.23-2.22,2.43-4.34,3.63-6.38,1.2-2.04,2.39-4,3.59-5.91l.14-.23.14-.19c.04-.06.08-.13.12-.19l.03-.05s-.01.02-.02.03c0-.01.01-.02.02-.03l.06-.12.13-.19s0,0,0,0h0s0-.02,0-.02c0,0,0,0,0,0h-.02c1.8-2.81,3.72-5.6,5.58-8.31.95-1.39,1.91-2.77,2.86-4.17,1.49-2.21,3-4.5,4.52-6.85,1.52-2.35,3.04-4.75,4.57-7.2,2.81-4.52,5.31-8.65,7.6-12.56,2.28-3.9,4.35-7.57,6.27-11.14,4.03-7.5,8.06-15.65,12.32-24.95,3.18-6.88,6.33-13.92,9.38-20.88,1.95-4.42,3.89-8.84,5.77-13.31,1.65-3.95,3.18-8.18,4.55-12.57,3.41-10.92,6.04-19.27,8.56-27.05,1.28-3.98,2.67-8.31,4.08-12.84.7-2.26,1.41-4.57,2.11-6.91.7-2.34,1.39-4.7,2.07-7.06.95-3.33,1.82-6.7,2.65-10.06.83-3.37,1.61-6.72,2.37-10.03.51-2.22,1.02-4.43,1.55-6.64l.5-2.04c.33-1.37.66-2.74.98-4.11.31-1.27.65-2.63-.45-3.39-.11-.07-.22-.12-.35-.15-.38-.09-.77.07-1.1.33-.33.26-.6.62-.74.94-.25.57-.36,1.22-.48,1.84-.05.25-.1.49-.14.73l-.23,1c-.15.67-.29,1.34-.45,2.01-.95,4.2-1.96,8.56-3.06,13-1.1,4.43-2.29,8.94-3.62,13.44l.07-.22-.41,1.31-.41,1.37-.27.84c-1.52,4.87-3.09,9.91-4.76,14.82-1.18,3.48-2.38,6.95-3.58,10.41l-1.79,5.21c-1.61,4.68-3.17,9.36-4.71,14.06l-.6,1.84c-1.23,3.76-2.49,7.65-3.85,11.43-1.44,3.99-3.2,7.93-4.91,11.74l-.42.95c-1.18,2.63-2.38,5.26-3.58,7.89l-2.01,4.41s.04-.1.05-.09h0s0,0,0,0l-.85,1.81-1.06,2.31c-9.03,19.63-17.31,35.21-26.02,49.03l-.47.75-1.33,2.1.08-.16s-.06.1-.09.14c.04-.06.07-.11.1-.17l.02-.03c-.87,1.36-1.75,2.71-2.63,4.06-.11.17-.21.31-.32.48-1.7,2.61-3.37,5.09-4.99,7.45-.33.48-.66.96-1,1.43-1.66,2.38-3.29,4.68-4.9,6.85-1.58,2.13-3.17,4.25-4.77,6.37-1.24,1.64-2.48,3.28-3.71,4.93-2.6,3.49-5.27,7.34-8.17,11.76-3.04,4.64-5.92,9.49-8.72,14.18-1.9,3.17-3.79,6.35-5.75,9.49l-1,1.57c-2.08,3.25-4.22,6.6-6.44,9.83-2.49,3.64-5.16,7.28-7.47,10.4-1.2,1.62-2.39,3.24-3.57,4.87,0-.02.01-.04.02-.06,0,0,0,0,0,0,.1-.37.19-.74.3-1.1ZM1044.33,799.32c-.15.09-.31.19-.46.28.02-.01.05-.02.07-.03-.54.28-1.08.58-1.63.85-.27.13-.54.25-.81.38.94-.49,1.89-.99,2.83-1.48ZM1064.62,610.66c0,.07.02.15.02.23-.13-1.56-.24-3.12-.36-4.68-.11-1.48-.31-2.94-.52-4.4-.43-2.97-.79-5.95-1.05-8.93,0,0,0,0,0,.01-.01-.32-.02-.64-.03-.96.71,3.21,2.78,5.99,5.56,7.72-.4,1.11-.8,2.21-1.18,3.33-.34,1-.66,2-.95,3.01-.17.6-.37,1.2-.52,1.81-.16.65-.31,1.3-.47,1.96-.14.56-.21,1.13-.32,1.69-.02.15-.05.3-.08.45-.04-.42-.07-.84-.11-1.25ZM1022.28,720.94c-.09-1.21-.08-2.43-.12-3.64.34-.19.58-.54.51-.94-.11-.57-.21-1.14-.34-1.71-.07-.31-.12-.63-.21-.93-.03-.11-.06-.22-.1-.33,0-.03,0-.07,0-.1-.05-2.66-.14-5.31-.2-7.96-.06-2.24-.08-4.47-.05-6.7.04-2.42.05-4.83-.02-7.25-.05-1.51-.19-3.02-.3-4.53,1.71-.3,3.3-.98,4.72-1.93-.15.39-.32.76-.43,1.17-1.12,4.4.85,9.1,4.52,11.54-.51,1.25-1.07,2.47-1.54,3.73-1.61,4.31-2.95,8.72-4.21,13.13-.32,1.09-.64,2.18-.94,3.27-.22.75-.43,1.51-.65,2.27-.13.45-.25.89-.37,1.35-.05.23-.11.48-.15.73-.04-.39-.1-.77-.14-1.15ZM904.53,993.11h-.01s-.01,0-.01,0c-.33-.72-.69-1.41-1.09-2.08-1.53-2.61-2.91-4.62-4.32-6.36-1.63-2.02-3.3-3.83-5.08-5.54-1.79-1.72-3.58-3.45-5.31-5.23l-.14-.16c-.81-.93-1.65-1.89-2.39-2.9.03.05.06.1.1.15l-.12-.18s.02.02.02.03c-.4-.57-.77-1.16-1.12-1.77-.21-.41-.41-.83-.59-1.27-.19-.51-.35-1.02-.47-1.54-.08-.43-.15-.87-.21-1.31-.06-.65-.07-1.33-.04-2.03.03-.59.1-1.17.18-1.76.13-.68.29-1.3.47-1.91.13-.34.28-.71.45-1.08.04-.08.15-.28.28-.49.11-.17.24-.35.37-.51.03-.05.18-.22.35-.37l.24-.2c.1-.08.22-.15.33-.21l.26-.09c-.05.01-.1.04-.15.05.06-.03.12-.05.18-.07.05-.04.19-.08.33-.11.08,0,.15-.02.22-.03h.28s.34.04.34.04l-.16-.04c.13.02.25.04.37.08.09,0,.14.02.19.03l.11.03.33.13c.32.16.62.34.92.52.57.39,1.12.81,1.66,1.24.38.32.84.76,1.3,1.23.36.39.68.79.99,1.22.7,1.04,1.29,2.11,1.72,2.93.56,1.07,1.1,2.14,1.62,3.22.44.92.83,1.85,1.23,2.78l.22.51c1.21,3.51,2.17,7.04,3.21,10.97.98,3.66,1.86,7.37,2.63,10.65.1.46.2.95.31,1.44,0,.01,0,.02-.01.02ZM907.66,1039.33s-.01,0-.02,0h0c-.54-.46-1.09-.88-1.66-1.28-1.98-1.38-4.1-2.51-5.91-3.44-1.56-.8-3.21-1.51-4.81-2.2-1.79-.76-3.4-1.51-4.99-2.26h.07s-.05-.01-.08-.03c.03.02.06.02.09.04h.02s0,0,0,0c-.4-.2-.79-.4-1.18-.61-1.41-.74-2.74-1.57-4-2.37-1.24-.84-2.46-1.76-3.62-2.72-.54-.48-1.05-.97-1.54-1.49-.34-.37-.65-.76-.94-1.16-.2-.31-.38-.62-.56-.94-.21-.43-.4-.86-.57-1.31-.19-.56-.35-1.13-.49-1.71-.1-.52-.18-1.03-.25-1.55-.07-.96-.08-1.94-.05-3.01.07-1.19.18-2.16.32-3.07.08-.33.16-.64.25-.95.1-.28.21-.55.33-.82,0,0,.04-.06.07-.11.05-.09.11-.19.11-.19l.16-.22s.14-.17.15-.16l.19-.09h.41c.58.14,1.14.31,1.71.49,1,.35,1.98.73,2.95,1.17.73.38,1.43.77,2.11,1.18.98.64,1.93,1.34,2.82,2.07,1.29,1.08,2.56,2.31,3.9,3.75,2.18,2.38,4.18,4.97,6.11,7.48l.35.5c1.01,1.44,2.02,2.87,2.96,4.35l.38.6c.38.6.77,1.2,1.12,1.82l.75,1.33.74,1.33c.95,1.89,1.65,3.35,2.26,4.73l.34.81s0,.02,0,.02ZM917.66,1024.68s-.01.01-.02.01c0,0-.01-.01-.02-.03l.13-3.76.13-3.79h0s0,0,0,0v.03s.02.1.02.1v.02c.04-.71.08-1.41.12-2.11.01-.21.04-.46.05-.67.12-2.22.27-4.53.5-6.86,0-.02,0-.04,0-.06.27-2.71.66-5.63,1.25-9.18.42-2.21.96-4.91,1.78-7.57.25-.69.51-1.35.82-2.02.05-.1.11-.2.16-.3l.14-.21h.03s.04-.06.06-.08c0,0,.01.01.02.01.04.02.08.06.11.09h.04s0,0,0,0h0s.22.21.22.21c.16.18.31.36.44.54.26.39.51.8.74,1.22.35.7.64,1.4.93,2.13.35,1.04.66,2.07.93,3.14.18.91.32,1.82.43,2.75.1,1.79.11,3.53.05,5.34-.15,1.73-.34,3.19-.59,4.6-.22,1-.49,1.99-.77,2.98-.51,1.46-1.11,2.94-1.81,4.52-.1.21-.24.43-.35.64-.51,1.01-1.03,2.05-1.67,3.05h0s0,0,0,0c0,0,0-.01,0-.02h0s-.51.79-.51.79c-.98,1.42-2.09,2.9-3.37,4.49ZM935.07,1124.86c-.75-.27-1.51-.52-2.29-.74l-2.95-.82c-1.65-.45-3.3-.91-4.95-1.39l-.89-.31c-.64-.21-1.28-.42-1.88-.68-.96-.41-1.91-.83-2.87-1.25-2.61-1.31-4.79-2.41-6.91-3.77-1.23-.79-2.4-1.64-3.5-2.53,0,0-.09-.09-.09-.1-.02-.02-.04-.04-.06-.06.01.01.03.02.04.03-.08-.08-.18-.16-.27-.23-.39-.32-.79-.7-1.16-1.11-.33-.37-.64-.74-.93-1.13-.19-.27-.36-.55-.52-.83-.09-.17-.17-.33-.24-.52-.07-.2-.13-.39-.19-.61-.03-.12-.05-.24-.06-.37v-.23s.04-.22.05-.22c.39.09.67.17.93.26h.01s.01,0,.01,0h.02c1.18.41,2.24.81,3.22,1.2.98.39,1.88.78,2.73,1.18l.79.38.21.11.45.21-.2-.1.54.26.54.25-.11-.03c.05.03.11.06.16.09.36.16.71.35,1.05.54l.61.33.53.27c.42.22.83.43,1.22.66,1.22.72,2.44,1.45,3.66,2.19,2.33,1.51,4.6,3.01,6.85,4.53,1.43.97,2.86,1.96,4.28,2.96l2.14,1.49s.04.04.03.05c0,0,0,.01.01.01h-.01s.01.03,0,.02ZM918.63,1080.54s-.02,0-.02,0t-.01-.01c-.58-.58-1.17-1.13-1.82-1.64-1.45-1.15-2.95-2.11-4.48-2.83-.89-.41-1.8-.76-2.71-1.11-1.83-.7-3.72-1.28-5.57-1.85l-1.74-.54c-1.93-.65-3.93-1.31-5.85-2.19-1.14-.55-2.26-1.17-3.43-1.89-1.39-.89-2.7-1.84-4-2.91-1.03-.87-1.85-1.63-2.57-2.41-.47-.52-.91-1.05-1.32-1.61-.28-.41-.55-.85-.8-1.29-.2-.38-.37-.77-.52-1.17-.07-.22-.14-.42-.19-.65-.03-.08-.07-.33-.1-.59v-.28s0-.22,0-.22l.07-.26s.02,0,.03,0c0,0,0-.02.01-.02s.03-.01.04-.02t.02,0c.08,0,.14.02.22.03.2,0,.37.02.53.05,1.43.37,2.83.8,4.25,1.23l.42.12c3.15,1.04,6.68,2.28,10.16,3.9,1.98.94,3.76,1.92,5.47,2.99-.05-.03-.09-.07-.14-.1l.25.16s-.08-.04-.11-.06c1.53.99,3.02,2.08,4.44,3.26-.03-.02-.05-.05-.08-.07l.24.19c-.05-.04-.11-.08-.16-.12,1.66,1.43,3.16,2.95,4.8,4.64l.72.78.5.55.86.97c.32.36.7.67,1.22,1.01,0,.01,0,.03.01.04.42,1.31.88,2.6,1.36,3.88,0,.01,0,.02,0,.02h0ZM931.44,1089.15c-.29-1.52-.57-3.05-.85-4.58-.18-.95-.3-1.91-.43-2.87l-.19-1.39c-.39-2.61-.65-5.26-.89-7.75l-.09-1.04c-.16-1.96-.32-3.92-.4-5.88l-.07-1.16c-.04-.77-.08-1.54-.09-2.3v-1.4c-.01-.84-.02-1.69-.02-2.53l.07-1.47.06-1.21c.09-1.58.28-3.21.57-4.86.21-1.13.49-2.23.83-3.34-.02.05-.04.11-.06.16l.07-.21s0,.03-.01.04c.21-.6.44-1.2.69-1.78.21-.43.43-.83.68-1.23.23-.34.46-.64.72-.95.22-.23.43-.45.67-.68.24-.2.47-.4.72-.58.18-.12.37-.23.57-.34h0s0,0,0,0h0s-.08.07-.08.07c.16-.11.34-.2.53-.27l.23-.08c.23-.05.33-.07.43-.08h.23s.18.08.18.08c.04,0,.08.03.11.04v-.02s.15.1.15.1c-.02-.02-.03-.04-.02-.04-.03-.02-.06-.05-.08-.07.03.02.05.04.07.06-.02-.02-.06-.07-.06-.07.14.11.26.22.38.35l.19.25h0s0,0,0,0c.03.04.05.08.07.12l.12.13c.15.29.28.59.39.9.13.39.25.79.35,1.19.18.84.31,1.74.42,2.78.12,1.61.16,3.33.11,5.23-.08,1.73-.2,3.44-.38,5.14-.2,1.87-.43,3.74-.67,5.61-.39,2.9-.88,5.84-1.35,8.68l-.26,1.61.06-.29-.22,1.07c-.35,1.85-.7,3.69-1.09,5.53-.42,2.07-.85,4.14-1.22,6.21-.4,2.23-.53,4.46-.4,6.63,0,.02,0,.02-.01.02h0s-.01,0-.01-.01l-.07-.34c-.23-1.07-.45-2.14-.64-3.21ZM954.85,1133.67l-.05-.49-.05-.49c-.3-2.48-.53-4.98-.76-7.47l-.09-.96c-.33-4.02-.67-8.56-.89-13.1-.2-4.05-.12-8.07-.02-12.16.14-1.91.31-4.17.66-6.52-.01.07-.04.15-.05.23l.06-.28s0,.04,0,.06c.14-.73.29-1.46.49-2.19,0,.01.01.01.02.02v-.02s.07.07.11.1c.03.03.05.07.08.1.2.2.32.36.45.53.2.31.39.61.57.93.28.57.55,1.14.78,1.74l-.06-.11c.06.17.12.34.18.51.37.99.66,2.06.92,3.23.39,1.83.61,3.31.72,4.71l.1,1.23.1,1.23.03.99.03.99.03.67c.02.38.03.74.03,1.11l-.07,1.81-.07,1.8c-.24,2.49-.51,4.98-.84,7.45-.2,1.48-.42,2.97-.63,4.47l-.33,2.32c-.52,3.59-.88,6.77-1.11,9.72,0,0-.01.01-.02.01h-.01s-.01,0-.01-.01c-.11-.72-.19-1.43-.26-2.15ZM960.58,1176.61h0c-.53-.52-1.08-1.01-1.64-1.48-1.42-1.18-2.76-2.09-4.08-2.76-1.11-.57-2.21-1.12-3.35-1.61-1.7-.74-3.48-1.38-5.19-2l-1.32-.48c-1.29-.48-2.66-.98-4.05-1.54-1.39-.55-2.8-1.15-4.18-1.81.03.01.05.03.08.05-.04-.02-.08-.04-.08-.04,0,0,0,0,0,0-1.44-.71-2.84-1.47-4.18-2.31-1.22-.79-2.42-1.67-3.57-2.64l.12.07s-.07-.06-.11-.09c.04.03.08.06.12.1h.01c-.23-.19-.45-.38-.67-.59-.17-.15-.27-.28-.43-.43-.81-.75-1.55-1.49-2.15-2.13.01.01.03.03.04.05l-.19-.2s.1.11.15.15c-.65-.7-1.27-1.44-1.88-2.17l-.77-.92c-1.32-1.55-2.48-3.03-3.55-4.53l-.98-1.39c-.21-.31-.43-.63-.62-.95.01,0,.02,0,.04.01,0,0-.01-.02-.02-.02.33.13.66.26.98.39,1.31.51,2.59,1.08,3.8,1.63,1.61.8,3.2,1.61,4.77,2.45,1.65.89,3.26,1.84,4.87,2.79,2.68,1.58,5.13,3.14,7.59,4.69l1.57,1,.2.12c1.55,1,3.08,2,4.63,2.99.99.64,1.81,1.24,2.64,1.83.58.41,1.15.82,1.72,1.22.43.3.84.62,1.25.95l.65.52.54.41c.49.36.97.74,1.43,1.13,1.24,1.05,2.49,2.11,3.7,3.23l1.23,1.16v.04s.9,3.07.9,3.07c0,0,0,.02-.01.02,0,0-.01,0-.02,0ZM905.37,1273.51h0c-1.43-1.33-2.84-2.69-4.21-4.09-1.41-1.54-2.76-3.11-4.13-4.67l-1.79-2.06c-1.15-1.32-2.34-2.6-3.55-3.88-.44-.46-.95-.98-1.51-1.52-.56-.54-1.17-1.1-1.8-1.61l-.86-.69c-.88-.72-1.76-1.44-2.68-2.09-1.44-1-2.87-1.97-4.35-2.9-1.68-1.06-3.38-2.11-5.07-3.16l-2.69-1.67c-3.01-2.01-5.72-3.83-8.38-5.84l-.82-.61c-2.77-2.09-5.55-4.17-8.38-6.19-1.77-1.27-3.56-2.52-5.35-3.76-1.32-.92-2.64-1.84-3.96-2.78-2.63-1.87-5.05-3.8-7.95-6.13-1.46-1.24-2.76-2.35-4-3.53-2.62-2.47-5.19-5.08-7.67-7.6l-2.67-2.71c-3.68-3.7-7.56-7.37-11.53-10.89l-3.18-2.8c-2.78-2.45-5.56-4.89-8.3-7.37-3.38-3.05-6.6-6.36-9.7-9.57l-.52-.53-1.31-1.44c-1.72-1.89-3.48-3.84-5.13-5.86-2.04-2.51-4.2-5.28-6.79-8.7l.13.19c-.42-.62-.85-1.23-1.28-1.83-.82-1.18-1.66-2.36-2.43-3.58l-.43-.68c-1.13-1.77-2.26-3.54-3.35-5.33-3.18-5.2-5.88-9.41-8.5-13.27-1.22-1.8-2.46-3.57-3.7-5.34-1.46-2.08-2.92-4.16-4.34-6.27-2.95-4.39-5.91-8.76-8.93-13.09-1.61-2.31-3.26-4.61-4.92-6.9-1.05-1.46-2.11-2.91-3.15-4.38l-1.62-2.61-1.63-2.59-1.88-3.63-.87-1.67c-.54-1.04-1.01-2.15-1.45-3.21l-.41-.98c-1.32-3.09-2.48-6.18-3.65-9.33,0,0-.03-.1-.04-.13-.01-.04-.03-.07-.04-.11.01.03.03.06.04.08,0,0,0,0,0,0-.11-.33-.22-.66-.32-.98-.63-1.83-1.25-3.76-1.88-5.68-1.33-4.09-2.66-8.18-4.05-12.26-1.64-4.79-3.53-9.57-5.37-14.19l-1.37-3.49-.09-.25c-.83-2.49-1.7-5.05-2.31-7.65h0s.01,0,.01,0c0,0,0,0,0,0,0-.04-.02-.06-.02-.1.15.03.3.05.45.08h.09s.55.09.55.09c.58.13,1.15.24,1.72.38h0c.62.15,1.24.31,1.86.48.93.33,1.83.69,2.72,1.08,1.01.51,2,1.04,2.96,1.62,1.54,1.02,3.14,2.21,5.05,3.77l2.31,1.97c2.85,2.43,5.8,4.95,8.91,7.17,1.89,1.33,3.81,2.61,5.74,3.88l.52.35c2.26,1.49,4.46,2.92,6.72,4.07l.65.32c2.07,1.05,4.21,2.14,6.4,2.99,2.63,1.03,4.82,1.81,6.88,2.48.75.25,1.5.49,2.25.72,1.65.52,3.31,1.05,4.93,1.64,2.19.82,4.45,1.74,6.91,2.78l.65.31.63.28h0s-.13-.03-.13-.03c.01,0,.03.01.04.02.11.04.21.09.32.13l.27.16v-.02s.01,0,.01,0l.57.28c2.87,1.54,5.49,2.97,7.94,4.35,2.46,1.38,4.75,2.69,6.97,4l1.06.67,1.33.85c1.71,1.26,3.39,2.53,5.06,3.86.07.07.15.14.22.2,2.01,1.81,3.97,3.67,5.93,5.53,1.67,1.58,3.34,3.17,5.03,4.73,1.39,1.27,2.79,2.52,4.18,3.78,2.13,1.91,4.24,3.82,6.33,5.77,7.65,7.14,14.51,13.63,21.04,20.62,1.62,1.76,3.22,3.56,4.79,5.39,1.34,1.57,2.59,3.25,3.8,4.88l.28.37c4.19,6.07,7.71,11.65,10.75,17.06,1.01,1.96,2,3.94,2.97,5.93,1.7,3.44,3.46,7.01,5.42,10.37.99,1.69,2.02,3.35,3.06,5.01.56.9,1.13,1.81,1.69,2.72,1.61,2.64,3.13,5.3,4.65,8.11,1.52,3.09,2.98,6.2,4.44,9.32l1.85,3.96c.94,1.99,1.93,3.95,2.92,5.92,1.11,2.21,2.23,4.41,3.26,6.65.92,2,1.82,4,2.72,6,1.06,2.35,2.12,4.7,3.21,7.04l.35.76c1.8,3.87,3.65,7.87,5.26,11.9.77,2.16,1.5,4.32,2.2,6.5.55,1.7,1.02,3.47,1.46,5.18l.45,1.71c.95,3.53,1.84,7.07,2.73,10.6l.85,3.38s-.01-.08-.02-.13l.06.29-.04-.16c.07.31.13.62.15.94l.09,1.33.1,1.61h0s-.02-.03-.03-.04c0,.03,0,.07,0,.1-.09-.14-.15-.3-.24-.44-.3-.43-.58-.87-.87-1.31l-1.54-2.36-1.56-2.35c-.97-1.46-1.83-3.01-2.68-4.51-1-1.93-1.95-3.87-2.9-5.82l-.9-1.84c-1.61-3.3-3.19-6.32-4.82-9.23-2.12-3.79-4.57-7.47-6.93-11.03-.88-1.32-1.76-2.64-2.62-3.97l-2.35-3.63c-1.42-2.17-2.82-4.35-4.25-6.51-2.38-3.62-4.89-7.11-6.82-9.75-2.47-3.41-5.01-6.72-6.95-9.23-2.02-2.61-4.17-5.49-6.56-8.8l-.24-.32-.11-.19c-.19-.27-.38-.54-.57-.81l-.45-.61c-1.83-2.62-3.73-5.33-5.81-7.83-2.51-3.03-5.19-6.05-8.18-9.26h0s0,0,0,0l.21.2h0c-.07-.07-.14-.14-.2-.21.07.08.15.16.22.23l.03.03c-.13-.14-.26-.29-.4-.43l-.65-.67-1.2-1.31c-2.3-2.51-4.68-5.35-7.49-8.93-.88-1.12-1.75-2.26-2.62-3.4-1.37-1.8-2.75-3.6-4.2-5.35-2.41-2.93-5.15-5.98-8.39-9.32-1.11-1.14-2.26-2.24-3.39-3.33l-.91-.88c-.92-.88-1.81-1.79-2.7-2.7l-1.1-1.13-1.66-1.87-.6-.65c-.39-.42-.77-.84-1.12-1.28l-1.2-1.52-2.41-3.04c-1.14-1.64-2.26-3.29-3.38-4.94l-.5-.73c-.3-.44-.58-.9-.86-1.38-.31-.51-.62-1.03-.96-1.51-.35-.49-.73-.95-1.18-1.35-.29-.25-.59-.47-.88-.7-.24-.18-.48-.36-.71-.55l-1.12-.93h.02c-.18-.16-.36-.32-.53-.47-1.07-.9-2.11-1.85-3.16-2.79-1.62-1.47-3.25-2.94-4.94-4.33-1.52-1.32-2.91-2.83-4.26-4.29l-1.04-1.11c-1.18-1.29-2.32-2.54-3.45-3.8l-.35-.38c-.38-.43-.75-.85-1.15-1.25-.13-.12-.25-.26-.38-.39-.3-.32-.6-.64-.96-.87-.33-.21-.64-.37-.99-.5-.61-.01-.7.55-.76.93-.15.99.71,1.82,1.4,2.49.16.15.31.29.42.42,2.14,2.46,4.25,4.99,6.36,7.52.28.33.55.68.83,1.03.45.58.91,1.16,1.42,1.71.49.52,1,1.03,1.51,1.54.38.37.76.75,1.13,1.14l1.13,1.17c.84.86,1.67,1.72,2.49,2.59h0c.76.82,1.56,1.69,2.35,2.56l.41.45c.65.73,1.33,1.48,1.91,2.26l.38.61.38.76c.39.77.78,1.55,1.24,2.3l.9,1.48.91,1.48.48.79c.63,1.05,1.27,2.1,1.96,3.11l.87,1.31c.7,1.07,1.41,2.14,2.18,3.17.36.48.7.97,1.05,1.46.67.93,1.34,1.88,2.06,2.76l1,1.25c.72.9,1.44,1.8,2.19,2.67l1.11,1.28c.76.88,1.53,1.76,2.26,2.66l1.07,1.31c.72.88,1.44,1.76,2.13,2.65.34.45.69.89,1.05,1.33.66.85,1.32,1.68,1.94,2.55,1.91,2.71,3.86,5.58,5.8,8.44l.9,1.32c.93,1.37,1.95,2.86,3.04,4.37,1.09,1.52,2.26,3.06,3.47,4.56,1.34,1.65,2.7,3.27,4.07,4.87.43.5.87.99,1.3,1.47.62.7,1.23,1.39,1.83,2.1,1.31,1.56,2.6,3.11,3.85,4.71,1.07,1.36,2.08,2.74,3.09,4.14,1.08,1.62,2.16,3.24,3.24,4.86,1.19,1.8,2.38,3.6,3.59,5.39,1.77,2.63,3.61,5.21,5.45,7.8l1.42,1.98.22.31.88,1.27,1.02,1.47c2.34,3.4,4.55,6.69,6.65,9.89,2.1,3.2,4.09,6.32,6.01,9.41,1.32,2.13,2.66,4.24,4.01,6.35l2.41,3.81c1.79,2.85,3.58,5.89,5.46,9.33,1.03,2.02,2.01,4.06,3,6.09,1.59,3.28,3.23,6.66,5.01,9.9,1.32,2.43,2.88,4.78,4.38,7.04l.2.29c1.21,1.83,2.39,3.71,3.49,5.58,0,0,0,.02,0,.02,0,0-.01,0-.02,0ZM957.29,1585.3l-2.9,1.76c-3.71,2.25-7.55,4.58-11.23,7.02-2.22,1.46-4.73,3.13-7.1,4.91-2.59,1.93-4.91,3.76-7.11,5.58-3.57,2.92-7,6.15-10.31,9.27l-2.46,2.3.16-.14h0s0,0,0,0l-.47.44.17-.16-.43.41-.34.3-1.72,1.6-.49.45c-2.23,2.03-4.48,3.94-6.2,5.38-1.24,1.04-2.53,2.01-3.82,2.98-.82.62-1.65,1.24-2.46,1.89-2.18,1.72-4.51,3.6-6.66,5.65-2.01,1.92-3.99,4.02-5.91,6.24-.86,1-1.72,2-2.59,2.99l-.25.29c-1.48,1.69-3.01,3.44-4.69,5-.58.51-1.2,1.01-1.84,1.48-.18.12-.37.23-.55.33l-.37.15-.22.07c-.27.07-.44.11-.61.12-.09,0-.16,0-.25,0l-.17-.02-.15-.06-.15-.12-.06-.02c-.07-.05-.12-.1-.18-.15,0,0-.18-.19-.19-.19-.1-.15-.18-.29-.26-.43-.24-.5-.43-1-.63-1.51-.4-1.21-.74-2.4-1.04-3.63-.39-1.79-.66-3.39-.87-4.9-.22-1.6-.35-3.21-.49-4.81-.16-2.44-.27-4.77-.31-7.14-.02-1.8.03-3.59.09-5.38l.03-1.19s.01-.13.02-.13c0,0,0-.02,0-.04,0-.02,0-.04,0-.06,0,0,0,0,0,0,.01-.24.02-.48.04-.73l.03-.95.09-1.71c.07-1.42.16-3.03.27-4.64.37-5.85.89-11.89,1.54-17.95.55-4.94,1.34-10.31,2.46-16.42.72-3.42,1.45-6.96,2.38-10.37.18-.62.34-1.24.5-1.85.3-1.15.61-2.3.95-3.43l.52-1.64c.41-1.3.81-2.59,1.2-3.88.64-1.81,1.22-3.49,1.8-5.16.37-1.05.79-2.07,1.21-3.09l.34-.84c1.19-2.98,2.48-5.88,3.69-8.57,1.87-3.69,3.8-7.35,5.74-11.02.52-.97,1.05-1.93,1.57-2.9l.97-1.76.89-1.63.9-1.63.63-1.16c.53-.97,1.06-1.94,1.63-2.89.31-.49.66-.98,1.03-1.43.56-.61,1.15-1.17,1.73-1.73.35-.33.71-.67,1.06-1.01l.9-.91.9-.9.68-.68,1.81-1.78,1.45-1.44c2.11-2.1,4.29-4.26,6.51-6.32,1.23-1.13,2.67-2.45,4.17-3.68,1.48-1.21,3-2.32,4.43-3.36,2.05-1.43,4.21-2.94,6.41-4.4.88-.19,1.76-.34,2.64-.5,1.07-.19,2.14-.38,3.2-.62,1.43-.31,2.76-.83,3.87-1.28.85-.32,1.71-.67,2.57-1.02l1.4-.56c1.04-.38,2.07-.77,3.1-1.17.96-.28,1.92-.55,2.89-.78,1.81-.37,3.58-.65,5.4-.84.76-.04,1.52-.05,2.27-.06l-.03.02-.26.2-.39.29c-.95.64-1.86,1.31-2.8,1.99-1.8,1.31-3.58,2.68-5.67,4.36-1.67,1.34-3.32,2.79-5.03,4.42l-.22.22c-.69.66-1.38,1.31-2.05,1.99l-1.3,1.35-.5.51-.23.25c-.2.2-.41.42-.6.64l-.88,1.04-.93,1.1-.42.49c-.36.4-.72.81-1.04,1.24l-.94,1.26-.95,1.25-.37.49c-.34.44-.68.89-1,1.35l-.78,1.17c-.98,1.44-1.95,2.89-2.88,4.36-1.33,2.14-2.66,4.29-3.97,6.45l-1.19,1.98c-1.92,3.19-3.91,6.49-5.95,9.68l-1.07,1.64c-.66,1.01-1.32,2.01-1.97,3.02l.17-.26-.51.77c-.79,1.19-1.58,2.38-2.34,3.59-1.26,1.96-2.39,3.74-3.46,5.59l-.52.91c-.41.7-.83,1.41-1.21,2.12-.63,1.2-1.27,2.4-1.9,3.61-.41.8-.8,1.6-1.15,2.41l-.51,1.11-.5,1.1-.19.4c-.12.27-.24.53-.35.8l-.51,1.26c-.62,1.53-1.23,3.05-1.75,4.62l-.84,2.49-.15.41c-.1.28-.19.57-.28.85-.36,1.21-.72,2.4-1.08,3.6l-.06.23c-.55,1.84-1.09,3.88-1.67,6.23-.55,2.26-1.12,4.6-1.58,6.93-.24,1.2-.46,2.39-.67,3.6-.2,1.12-.36,2.24-.52,3.38l-.14,1.01c.4-1.87.8-3.54,1.22-5.11.24-.9.51-1.78.77-2.66l.27-.91c.55-1.64,1.12-3.32,1.73-5,.67-1.83,1.37-3.65,2.08-5.47,1.32-3.34,2.8-6.63,4.07-9.42l.79-1.53c.41-.8.81-1.6,1.23-2.41.37-.73.77-1.44,1.17-2.15l.47-.82.18-.33c.47-.84.94-1.68,1.45-2.49l1.11-1.81,1.12-1.8,2.62-4.1.14-.21c1.81-2.71,3.64-5.44,5.39-8.18v.06s0-.04.02-.05c-.01.02-.02.04-.03.06h0c.28-.43.56-.86.84-1.29.95-1.5,1.92-3,2.86-4.51,1.32-2.13,2.61-4.27,3.89-6.42,1.24-2.11,2.49-4.21,3.72-6.32l1.46-2.42.5-.84c.41-.7.83-1.4,1.26-2.08l-.06.12c.15-.23.3-.46.45-.68.81-1.29,1.64-2.57,2.47-3.86l1.67-2.32,1.38-1.93c.3-.41.63-.81.95-1.22l.52-.64.5-.63,1-1.25,1.11-1.26,1.72-1.93c.6-.68,1.23-1.34,1.86-2l.94-.98c.6-.65,1.24-1.27,1.87-1.88l.9-.88c.69-.7,1.41-1.38,2.12-2.06l.51-.47.57-.53c1.12-1.01,2.24-2.02,3.38-3.01,1.46-1.27,2.94-2.45,4.39-3.5l.23-.16c1.01.12,1.99.26,2.99.41l.75.17c.75.17,1.48.35,2.23.54,1.06.37,2.05.76,3.06,1.21.58.32,1.14.64,1.7.98.73.49,1.44,1.01,2.13,1.56,1.36,1.18,2.67,2.45,4,3.87h-.01s0,0,.01,0l-.16-.15c.36.4.73.81,1.09,1.22.37.42.7.81,1.05,1.21.24.27.46.53.69.79.72.86,1.4,1.67,1.99,2.38,1.51,1.85,3.22,3.94,4.82,6.08,1.21,1.77,2.31,3.57,3.37,5.5,1.39,2.73,2.7,5.49,4.02,8.25l1.03,2.17c1.93,3.99,3.42,7.36,4.69,10.63.36,1.01.72,2.02,1.04,3.05.27.83.48,1.67.71,2.51l.11.41c.25,1.2.45,2.4.62,3.61.07,1.02.11,2.03.11,3.05-.11,1.76-.29,3.43-.56,5.09-.16.73-.34,1.45-.54,2.18-.2.54-.41,1.06-.64,1.58-.27.48-.53.94-.8,1.4-.62.91-1.28,1.79-1.97,2.65-.56.62-1.13,1.22-1.73,1.79-1.09.95-2.23,1.87-3.4,2.73-2.61,1.81-5.37,3.52-8.04,5.15-1.35.84-2.72,1.67-4.06,2.53-2.74,1.73-5.45,3.59-8.08,5.4-1.45.99-2.9,1.99-4.37,2.97-4.87,3.25-9.95,6.37-14.31,9.03ZM1023.27,1580.4c.08-.23.15-.46.23-.69.03-.09.06-.17.09-.25.01,0,.02.02.04.02.18.06.36.11.53.15.55.13,1.1.03,1.66-.03-.85.27-1.69.54-2.54.81ZM1147.98,1401.46c-1.14,3.6-2.28,7.2-3.43,10.8-3.53,10.61-7.16,21.58-12.01,32.16-1.21,2.43-2.41,4.85-3.67,7.24-1.25,2.36-2.5,4.71-3.7,7.09-.65,1.28-1.27,2.58-1.87,3.86-1.78,3.85-3.3,7.59-4.49,10.62l-.79,2.01c-.85,2.18-1.72,4.36-2.61,6.52-1.15,2.74-2.32,5.47-3.5,8.2-2.42,5.58-4.91,11.35-7.5,17.11-1.9,3.91-3.41,6.87-4.91,9.61-1.91,3.5-3.8,6.94-5.86,10.18l-1.01,1.58-.49.77s-.08.11-.09.11c0,0,0,0,0,0-.01.02-.03.04-.04.07.01-.02.02-.04.03-.06-.01.01-.02.02-.03.03-.01.02-.03.04-.04.06-.13.22-.34.54-.55.85-.39.58-.77,1.15-1.19,1.7l-.68.91c-.39.52-.78,1.05-1.19,1.56-1.37,1.63-2.87,3.36-4.51,5.01-1.03,1.06-2.07,2.1-3.11,3.14l-1.56,1.56-2.76,2.79c-2.32,2.34-4.72,4.77-7.16,7.08-4.67,4.28-8.58,7.66-12.29,10.65,0,0-.01,0-.02,0h0s0,0,0,0c0,0,0-.03,0-.03l1.39-1.25,1.02-.91c1.47-1.32,2.85-2.69,4.1-4.07l.6-.66c.58-.63,1.16-1.26,1.69-1.92l.93-1.16,1.38-1.71c1.1-1.37,2.14-2.8,3.18-4.21l.68-.93.2-.27c1.09-1.5,2.23-3.05,3.2-4.67,1.25-2.11,2.23-3.91,3.1-5.65,1.98-3.99,3.61-8.05,5.12-11.88,1.35-3.41,2.68-7.16,4.17-11.81,1.23-3.78,2.48-7.68,3.6-11.6,1.05-3.66,2.03-7.45,2.99-11.6,1.04-4.48,2.08-8.45,3.18-12.12,1.94-5.77,4.14-11.38,6.55-16.69l-.06.19c.03-.06.05-.12.08-.18-.03.06-.05.12-.08.18v.03c.81-1.7,1.67-3.38,2.56-5.04.77-1.45,1.63-2.89,2.45-4.34.58-1.01,1.15-2.07,1.74-3.09,1.93-3.29,3.95-6.61,6.12-10.08,2.6-4.03,4.7-7.09,6.79-9.92,1.95-2.63,4.09-5.32,6.73-8.48l.63-.74.64-.73c2.61-3.03,5.42-5.96,8.13-8.78l.64-.66c2.41-2.53,5.21-5.54,7.65-8.83v.06s.01-.03.02-.04c-.02.06-.04.12-.06.18l-.03.18ZM1168.97,1334.25c-.19.53-.37,1.06-.55,1.59-.78,2.44-1.42,4.85-1.99,7.53-.24,1.1-.5,2.22-.79,3.41-.29,1.19-.61,2.44-.98,3.8-.58,2.14-1.21,4.27-1.87,6.38-.21.52-.42,1.04-.64,1.56-.65,1.54-1.36,3.03-2.06,4.54l-.2.43c-1.48,3.11-3.01,6.19-4.54,9.27-1.16,2.36-2.33,4.72-3.48,7.09-1.34,2.77-2.69,5.52-4.12,8.25-.6,1.14-1.24,2.31-1.96,3.55-.72,1.24-1.52,2.54-2.42,3.97-.68,1-1.37,1.99-2.1,2.96-.7.94-1.44,1.84-2.18,2.75-1.65,1.87-3.34,3.71-5.03,5.54-1.2,1.3-2.41,2.62-3.6,3.93-2.79,3.09-5.52,6.37-8.15,9.77-2.76,3.56-5.17,6.92-7.36,10.28-2.19,3.33-4.4,6.87-6.78,10.82l-1.25,2.05c-1.76,2.9-3.58,5.88-5.21,8.91-1.08,2.02-2.11,4.04-3.07,6.03-.86,1.79-1.63,3.66-2.38,5.47l-.14.36c-1.63,3.9-3.05,7.94-4.35,11.73-1.4,4.09-2.5,8.42-3.46,12.22-1.12,4.39-2.15,8.21-3.16,11.69-.92,3.1-1.91,6.18-2.9,9.27l-.77,2.41v.03s-.12.37-.12.37l-.1.21h0c-.04.16-.1.32-.14.48l-.03.1h.02c-.05.12-.08.24-.12.36h0c-2.24,6.86-4.82,13.47-7.66,19.65-.72,1.47-1.46,2.92-2.26,4.36-.7,1.26-1.45,2.49-2.22,3.72l-.67.99c-.99,1.45-1.98,2.9-3.02,4.32-1.43,1.99-2.91,3.94-4.41,5.88-.39.46-.79.92-1.21,1.39l-.38.46c-.26.31-.51.62-.8.9l-1.37,1.38-1.38,1.39-.47.44c-1.3,1.18-2.6,2.36-3.95,3.48l-.48.4c-.54.45-1.07.88-1.64,1.31-.77.57-1.56,1.15-2.35,1.72l-2.52,1.63c-.51.33-1.03.62-1.56.9l-.77.43-.46.22c-.76.38-1.53.76-2.31,1.1-.92.4-1.85.78-2.78,1.14-1.94.69-3.76,1.27-5.54,1.76-.87.24-1.75.46-2.63.67-.67.16-1.34.32-2,.49,0,0-.01,0-.01,0t-.01-.01s0,0,0,0c0,0,0,0,0-.01.78-1.84,1.56-3.69,2.32-5.54,1.37-3.28,2.94-6.83,4.92-11.15l.86-1.72c1.13-2.28,2.3-4.64,3.61-6.87,1.61-2.77,3.24-5.54,4.94-8.26,3.57-5.75,7.06-11.4,10.32-17.08.98-1.74,1.97-3.48,2.94-5.22,1.13-2.01,2.27-4.01,3.42-6.01,1.05-1.83,2.12-3.65,3.19-5.47,1.07-1.82,2.15-3.64,3.2-5.47,1.94-3.38,3.8-7,5.52-10.75.91-1.97,1.79-3.95,2.68-5.93,3.56-5.95,7.05-12.03,10.68-18.61,1.96-3.55,3.9-7.12,5.81-10.71.66-1.26,1.33-2.52,1.98-3.79.28-.46.56-.93.84-1.4l.48-.8c1.03-1.73,1.98-3.51,2.93-5.29l.23-.41c.31-.58.58-1.19.85-1.79l.43-.94.44-.92c.24-.52.49-1.05.72-1.58.92-2.08,1.83-4.17,2.68-6.29,1.29-3.2,2.55-6.74,3.98-11.14,0,0,.06-.19.09-.28h0s.01-.02.01-.02v-.03c.64-1.95,1.33-4.09,2.01-6.32.68-2.23,1.35-4.56,1.95-6.89.93-3.55,1.67-7.22,2.39-10.76,0-.03.02-.07.02-.11v-.02s.16-.79.16-.79c.36-1.77.76-3.69,1.14-5.66.41-2.1.81-4.26,1.18-6.42.27-1.57.54-3.15.79-4.73.38-2.28.75-4.56,1.16-6.83v.14s0,0,0,0c.03-.18.07-.36.1-.54l.18-1.15h0l-.02.24s.01-.08.02-.11l.03-.26c.02-.11.04-.22.06-.33.34-1.83.68-3.65.95-5.5.33-2.16.58-4.33.81-6.5l.11-.93c.15-1.41.31-2.83.44-4.25.19-1.69.33-3.17.43-4.54.1-1.36.15-2.61.16-3.8.03-1.73-1.28-3.34-3.04-3.75-.13-.03-.27-.06-.41-.07-1.91-.23-3.78,1.06-4.23,2.92-.18.69-.24,1.43-.3,2.15l-.07.8c-.08.67-.16,1.34-.22,2.02-.1,1.07-.19,2.15-.27,3.22l-.09,1.08c-.09,1.15-.19,2.28-.3,3.43-.41,2.9-.86,5.78-1.32,8.66l-.37,2.36c-1.19,7.49-2.5,15.19-3.89,22.88-1.44,7.28-2.92,13.89-4.52,20.22l-.41,1.62c-.67,2.68-1.35,5.37-2.07,8.03-.53,1.94-1.07,3.86-1.63,5.78-.32,1.1-.67,2.19-1.03,3.27l-.39,1.21.03-.16c-.02.05-.03.1-.05.16.02-.06.04-.11.05-.17v-.04c-.18.54-.37,1.07-.56,1.61-.79,2.29-1.63,4.55-2.5,6.81-.86,2.22-1.87,4.44-2.84,6.57l-.37.81c-1.77,3.54-3.56,7.05-5.39,10.56-.48.92-.95,1.83-1.43,2.75-1.14,1.78-2.27,3.55-3.4,5.34-1.55,2.44-3.02,5.21-4.63,8.68-.52,1.1-1.01,2.21-1.5,3.3-.01,0-.16.27-.16.27-1.9,3.3-3.93,6.6-5.73,9.52-1.68,2.61-3.6,5.57-5.62,8.41l-1.89,2.64c-1.3,1.81-2.6,3.62-3.86,5.45-1.98,2.87-3.9,5.77-5.81,8.69-1.64,2.53-3.22,5.08-4.82,7.64l-.19.31c-4.46,7.18-9.07,14.61-12.98,22.28-1.47,2.89-2.9,5.85-4.29,8.94-1.39,3.08-2.75,6.29-4.11,9.66v-.08s0,0,0,0c.05-.61.08-1.23.13-1.84.18-2.47.39-4.92.62-7.38l.14-1.44c.37-3.94.74-7.87,1.06-11.82.16-1.98.31-4.03.46-6.19.14-2.16.28-4.43.4-6.83.43-8.11.73-16.37,1.02-24.36l.02-.81.04-.82c.15-2.82.31-5.73.62-8.6.2-1.78.43-3.55.68-5.32.16-1.11.35-2.22.55-3.33l.16-.93c.44-2.19.9-4.37,1.39-6.55.45-1.96,1.04-3.9,1.61-5.79l.09-.32s0,.04.01.06h0s0,.02,0,.02c.05-.16.11-.33.17-.49.47-1.46.98-2.88,1.54-4.3.61-1.54,1.27-3.04,1.93-4.54,0,0,.08-.15.09-.14.02-.04.03-.07.05-.11v.02c.03-.06.05-.13.08-.19.08-.22.19-.45.3-.68l.24-.49.11-.24s.06-.12.08-.11c0,0,0,0,.01-.01,0-.02.02-.05.02-.06v.02c.02-.06.04-.1.06-.16.07-.21.17-.43.28-.64l.15-.3.22-.47v.02c1.84-3.89,3.93-7.73,5.95-11.46l.24-.45,1.2-2.21c1.69-3.1,3.38-6.2,5.02-9.32.62-1.18,1.23-2.37,1.85-3.55,1.27-2.44,2.54-4.87,3.87-7.28,1.51-2.74,3.1-5.43,4.69-8.12l1.82-3.08c2.29-3.93,4.24-7.97,5.69-11.04,1.35-2.83,2.61-5.84,3.84-8.75l.66-1.58c1.45-3.42,2.93-6.81,4.43-10.2.67-1.52,1.36-3.03,2.04-4.54.96-2.12,1.91-4.24,2.84-6.37,1.67-3.83,3.32-7.67,4.96-11.51,1.48-3.41,2.98-6.8,4.5-10.19,1.9-4.25,3.86-8.64,5.7-13.01l2.02-4.73c2.67-6.26,5.44-12.73,7.73-19.25,1.52-4.28,2.78-8.32,3.86-12.32l.55-2.03c.36-1.34.71-2.7,1.1-4.04.58-2.03,1.18-4.04,1.82-6.06,0,.02,0,.04.01.05h0s0,.02,0,.02c.08-.25.18-.5.26-.74.66-1.96,1.36-3.95,2.12-5.88l1.15-2.93c.55-1.39,1.1-2.77,1.63-4.16l.15-.37c.82-2.13,1.66-4.29,2.45-6.48.79-2.19,1.53-4.4,2.15-6.62,1.16-4.14,2.14-8.27,3.03-12.13l1.08-4.59c.6-2.55,1.21-5.1,1.77-7.66.75-3.33,1.34-6.75,1.9-10.04l.26-1.51c.73-4.26,1.48-8.54,2.26-12.79,0,.05-.04.22-.04.25,0-.01,0-.02,0-.03,0-.03.01-.08.02-.12,0,.03-.01.06-.02.09.37-1.9.75-3.75,1.3-5.55.04-.12.08-.25.13-.37,0,0,.01.01.02.01h0s.06.05.09.07c.2.17.4.35.57.54l-.12-.1c.16.17.32.35.47.52.85.97,1.6,1.99,2.31,2.96l-.16-.23.28.41c1.53,2.18,3.11,4.44,4.53,6.73.67,1.08,1.34,2.21,2.05,3.46.71,1.25,1.45,2.61,2.28,4.16,1.69,3.31,3.33,6.55,4.78,9.9,1.55,3.58,2.99,7.16,4.3,10.65,0-.01,0-.02-.01-.03l.11.28c-.03-.08-.07-.16-.1-.24,1.12,3.16,2.06,6.1,2.86,9.01.74,2.67,1.37,5.43,1.97,8.11l.1.43c.71,3.25,1.4,6.5,2.05,9.76l.22,1.11c.56,2.8,1.11,5.62,1.58,8.44,1,6.02,1.81,12.53,2.47,19.91.21,2.67.39,5.12.55,7.43.16,2.31.29,4.48.41,6.6l.05.87c.13,2.2.25,4.39.31,6.6.03.99.05,2.01.05,3.11,0,1.1-.02,2.3-.06,3.64l-.02.37c-.08,1.38-.16,2.8-.34,4.19-.15,1.16-.32,2.31-.5,3.47-.02.05-.03.1-.05.14Z"/>
      <polygon class="b" points="936.77 1164.93 936.77 1164.93 936.77 1164.93 936.77 1164.93"/>
    </g>
    <g>
      <polygon class="b" points="784.11 1717.54 577.04 1717.54 577.04 757.41 747.72 757.41 747.72 774.61 594.25 774.61 594.25 1700.34 784.11 1700.34 784.11 1717.54"/>
      <polygon class="b" points="1422.44 1717.54 1185.89 1717.54 1185.89 1700.34 1405.24 1700.34 1405.24 774.61 1260.84 774.61 1260.84 757.41 1422.44 757.41 1422.44 1717.54"/>
    </g>
  </g>
  <g>
    <path class="b" d="M123.95,1973.54c0-52.9,3.69-107.03,8-162.39-47.36,4.31-91.96,31.68-111.95,66.74-6.15,11.07-9.23,23.69-9.23,35.99,0,32.6,21.22,64.28,62.74,63.66,4.61,0,9.84-.62,14.15-1.85,2.46-.92,5.54.92,2.46,3.08-1.54.92-10.76,3.69-22.76,3.69-18.15,0-43.06-6.15-58.74-32.6-5.54-9.23-8.61-22.14-8.61-35.99s3.07-29.52,10.76-43.06c19.99-35.37,66.13-63.66,115.34-68.89l6.77-.62c1.54-15.99,3.08-29.53,4.92-37.83.31-1.23-.31-2.15,4.61-1.23,3.08.31,6.15,2.77,6.15,4.31-1.54,8.61-3.08,20.3-4.31,34.14,15.68-.62,32.29.62,47.98,4,46.13,9.23,67.05,35.99,67.66,61.21.62,23.99-18.15,48.59-47.67,58.74,19.38,8.3,36.91,22.45,46.13,44.6,12-1.54,26.76-2.46,38.14-2.46,10.15,0,17.84.62,19.68,2.77,2.15,2.15,0,3.38-1.85,3.69-19.07,1.54-36.6,3.07-52.29,5.53l-.62.31c.62,3.69.92,7.38.92,11.07,0,39.37-32.29,70.13-70.74,83.35-15.38,5.53-33.52,8.3-50.75,7.99-15.99-.62-60.9-7.99-60.9-31.68,0-2.77.62-5.54,1.84-8.92,7.08-15.69,23.99-27.99,42.44-36.91-.31-10.15-.31-20.3-.31-30.45ZM134.4,2011.37c.62,12.3,1.85,22.76,4.61,29.52.31,1.54-.31,2.46-2.15,2.46-3.38-.31-6.15-4.31-7.07-6.77-2.15-4.61-3.69-12-4.61-20.6-14.76,7.69-28.6,18.15-35.98,31.68-7.38,21.22,31.37,23.99,46.44,24.3,15.68.62,33.53-1.85,49.83-7.07,32.6-11.07,70.43-37.22,66.43-84.58-35.06,5.53-62.13,10.15-86.73,19.07-9.23,3.38-20.3,7.07-30.76,12ZM200.53,1928.64c-6.77,1.54-13.53,1.85-21.53,2.16-12,.62-26.45-.62-28.61-5.23-.92-4.92.92-5.23,3.08-6.15,4.92-2.77,12.61-4.61,21.84-4.61,7.07,0,15.38,1.23,24.3,4,21.22-3.38,48.9-27.07,49.21-51.36.31-21.53-19.07-47.67-61.51-55.36-10.46-1.54-21.22-2.46-32.29-2.46-4,0-7.69,0-11.69.31-3.69,56.29-8.3,128.56-9.23,189.46,8.3-3.69,16.61-6.46,24.3-9.23,30.45-10.76,65.82-15.99,90.73-19.68-8-20.91-28.3-35.68-48.59-41.83Z"/>
    <path class="b" d="M356.75,1965.24c1.23,4,1.54,8.61.62,13.23-2.77,15.38-15.38,23.07-29.53,22.14-11.38-.62-19.07-10.15-20.61-18.76-2.15-12.92,5.84-27.68,12.92-30.14.62,0,.92-.31,1.54-.31,1.23-4.31,3.38-7.69,9.53-7.38,8.3,1.23,15.07,5.23,19.68,10.76,7.69.92,15.68,1.23,22.76,1.23,14.45,0,26.45-1.23,29.22-1.23,8.92-.31,6.77,3.69-.62,6.15-6.77,2.46-26.76,5.23-45.52,4.31ZM317.99,1980.92c1.54,8.92,4.92,12.3,10.76,12,13.53-.62,20.3-18.15,15.38-29.22-7.08-1.23-12.92-3.08-17.22-5.85l-.62.62c-4,3.08-9.84,13.84-8.3,22.45Z"/>
    <path class="b" d="M401.33,1986.15c0-17.84.31-34.45.62-46.44.31-14.46.92-32.6,1.85-51.36-25.53,2.15-49.52,4-74.12,8.3-5.84.92-12.3-7.07-7.07-8.3,21.84-4,43.67-6.46,81.5-9.53,1.23-23.99,2.77-48.29,4-67.36-.31-4.92,11.69-3.08,12.61,3.08-2.15,15.38-4,39.37-5.23,63.35,2.77,0,5.84-.31,8.92-.62,26.14-1.84,61.2-4.61,91.34-4.61,17.53,0,33.53.92,44.6,3.39,2.77,1.23,5.84,4.3,7.07,6.15.31,2.46-1.23,3.69-3.69,3.39-13.84-2.77-31.06-3.69-49.52-3.69-32.91,0-68.89,3.08-92.27,4.92-2.46.31-4.61.62-7.08.62l-2.15,51.67c-.31,19.68-1.23,48.59-1.23,76.58,0,31.37,1.23,61.51,5.23,75.97.92,7.07-8.61.62-10.76-5.84-3.38-10.76-4.61-58.44-4.61-99.65Z"/>
    <path class="b" d="M438.54,1975.69c0-6.76,3.38-13.53,11.07-18.76,8.3-5.54,18.76-8.3,29.53-8.3,8.61,0,17.22,1.85,24.91,5.23h.31l5.23-7.07c1.85-3.38,12.3,3.38,10.15,7.07-1.54,4.61-4.3,10.15-4.92,15.99-.31,5.23,1.23,11.38,6.77,12.92,15.69,3.07,42.14-12.61,53.21-24.92,5.23-5.23,9.84,2.46-7.07,19.38-7.69,7.69-28.91,17.53-41.83,14.46-10.15-2.46-17.84-8.3-21.84-19.38-8.61,7.69-28.91,23.38-45.21,23.38-4,0-7.69-.92-11.07-3.08-6.15-4.61-9.23-10.46-9.23-16.92ZM498.82,1960.01c-3.08-.92-7.38-1.54-12-1.54-15.38,0-35.68,5.85-39.06,19.99-.92,3.69.92,7.07,5.54,7.38,14.76-1.84,34.76-14.45,45.52-25.83Z"/>
    <path class="b" d="M569.55,1980.61l3.08-30.75c0-2.16,3.07-2.46,6.15-1.23,2.46,1.54,5.23,4.31,4.92,6.15l-.61,10.46c10.46-7.69,32.6-18.76,49.82-16.92,5.84.62,11.38,6.15,11.38,10.76,0,5.23-3.38,16.92.62,22.76,3.08,2.46,6.46,3.38,10.46,3.38,19.07,0,45.83-24.3,55.67-29.22,1.23-.61,2.46,6.15-2.15,12-7.38,9.53-27.37,25.84-48.9,25.84-8.92,0-18.76-3.69-24.3-11.69-3.08-4.62-4-9.84-4-15.38,0-3.38.31-6.76.92-10.46-22.76,2.46-46.13,17.22-51.98,30.14l-.31,7.08c.31,4-10.46,1.23-10.76-3.69-.31-2.46-.62-5.54,0-9.23Z"/>
    <path class="b" d="M701.48,1965.54c0-9.53,1.85-19.07,5.23-24.3.31-1.54,3.38-1.85,7.07-.92,3.38,1.23,5.23,3.69,4.92,5.23-2.46,2.46-8.61,37.22-4,41.21,2.46,1.85,5.54,2.77,8.92,2.77,19.07,0,51.67-24.6,60.9-33.83,1.23-1.23,4.3.62.62,7.38-5.84,10.76-33.83,35.06-55.05,35.98-7.69.31-15.99-1.54-21.84-7.99-4.61-4.92-6.77-15.38-6.77-25.53ZM710.7,1914.49c.62-.92,2.77-7.07,3.38-8.61l.62-4.62c0-1.85,3.38-2.46,6.46-1.23,4,.92,6.46,3.39,5.84,4.92,0,1.23,0,3.38-.92,5.23-.62,1.54-3.08,8.3-4,9.84-.92,1.23-4.61,1.23-7.38-.31-3.69-1.23-5.54-4-4-5.23Z"/>
    <path class="b" d="M806.35,1992.3c25.53-1.85,47.67-18.15,66.13-34.45,1.85-1.23,4,4,1.85,8-4.92,9.22-25.22,33.53-62.74,35.68-17.84,0-35.37-12-34.45-31.98.31-8.61,4-16.92,11.07-22.76,4.3-3.38,9.84-6.15,16.61-6.15,3.38,0,7.38.62,11.38,2.77,4,2.15,6.77,5.84,7.07,8.92,0,5.23-6.46,7.38-9.23,8.3-3.07,1.23-5.84,0-3.69-4,.62-1.23,1.84-3.69,2.15-7.07-11.38-2.46-22.76,8.92-25.22,20.61-2.77,13.23,5.23,22.14,19.07,22.14Z"/>
    <path class="b" d="M858.93,1975.69c0-6.76,3.38-13.53,11.07-18.76,8.3-5.54,18.76-8.3,29.53-8.3,8.61,0,17.22,1.85,24.91,5.23h.31l5.23-7.07c1.85-3.38,12.3,3.38,10.15,7.07-1.54,4.61-4.3,10.15-4.92,15.99-.31,5.23,1.23,11.38,6.77,12.92,15.69,3.07,42.14-12.61,53.21-24.92,5.23-5.23,9.84,2.46-7.07,19.38-7.69,7.69-28.91,17.53-41.83,14.46-10.15-2.46-17.84-8.3-21.84-19.38-8.61,7.69-28.91,23.38-45.21,23.38-4,0-7.69-.92-11.07-3.08-6.15-4.61-9.23-10.46-9.23-16.92ZM919.22,1960.01c-3.08-.92-7.38-1.54-12-1.54-15.38,0-35.68,5.85-39.06,19.99-.92,3.69.92,7.07,5.54,7.38,14.76-1.84,34.76-14.45,45.52-25.83Z"/>
    <path class="b" d="M1028.69,2006.76c-10.76,0-19.99-5.23-26.76-15.99-9.53-15.69-12.61-40.9-12.61-65.82,0-32.6,5.23-65.2,8.3-76.58,7.69-28.6,18.45-46.75,35.98-47.67,19.38-1.23,25.22,15.99,25.22,35.68,0,12.92-2.46,26.76-5.54,37.22-8.92,28.6-19.68,60.9-50.13,91.04,3.69,20.3,10.15,33.53,19.68,33.83,22.14.62,52.28-36.91,59.67-50.13.92-1.54,4.31-.62,2.77,6.77-2.77,12-23.37,43.06-43.67,49.52-4.61,1.54-8.92,2.15-12.92,2.15ZM999.78,1926.79c0,9.84.62,19.38,1.54,27.68,25.53-28.3,35.06-59.36,41.83-85.81,2.77-10.76,4.92-23.68,4.92-34.76,0-14.46-3.38-25.53-12.92-24.91-14.45.92-21.84,19.37-26.76,41.52-5.84,26.45-8.61,52.9-8.61,76.27Z"/>
    <path class="b" d="M1258.43,1956.62c41.82-7.99,97.8-15.38,150.39-15.38,5.85,0,11.38,0,17.84.31,2.77,0,5.85,1.85,7.69,4.3,1.23,2.77.31,4.62-1.85,4.92-5.23,0-10.76-.31-16.3-.31s-11.07.31-16.61.31c-.31.31-.31.62-.31.62,2.16,9.53-.31,21.84-4.92,35.06l-.92.92-.62,4.61c-.92,22.76-2.77,43.06-2.77,64.28,0,16.61,1.23,33.53,4.92,52.9.31,2.15-1.85,3.08-4.62,1.85-3.38-1.23-6.15-3.69-6.46-6.15-3.08-15.99-4.61-38.45-4.61-61.82,0-10.15.31-20.3.92-30.14l-1.85,2.77c-20.3,27.07-56.59,55.67-100.57,56.9-58.74,1.54-102.11-43.98-99.03-124.56,2.77-69.51,54.44-149.17,130.71-153.47,24.61-1.23,47.67,6.77,62.43,28.6,4.92,7.38,7.69,16.92,7.69,26.76,0,15.38-6.76,32.29-22.76,44.91-8.92,7.38-17.53,4.31-12.92.62,18.15-14.46,25.22-33.22,25.22-48.9,0-6.15-1.23-12-3.08-16.61-7.38-18.45-27.07-25.22-47.67-25.22-3.08,0-5.84,0-8.92.31-63.05,6.46-115.03,76.27-119.33,142.4-.31,4.31-.31,8.61-.31,12.92,0,61.51,31.06,103.65,81.5,103.34,47.36-.31,92.27-42.75,109.49-78.43l1.85-4.3h.31c.31-5.54.92-10.46,1.54-14.77.62-6.15,1.54-11.38,2.16-15.07-42.44,2.15-86.12,8.3-119.95,15.07-2.46.31-6.46-1.84-8.3-4-2.46-2.46-2.46-4.92,0-5.54Z"/>
    <path class="b" d="M1445.4,1975.69c0-6.76,3.39-13.53,11.07-18.76,8.3-5.54,18.76-8.3,29.52-8.3,8.61,0,17.22,1.85,24.92,5.23h.31l5.23-7.07c1.85-3.38,12.3,3.38,10.15,7.07-1.54,4.61-4.31,10.15-4.92,15.99-.31,5.23,1.23,11.38,6.77,12.92,15.69,3.07,42.14-12.61,53.21-24.92,5.23-5.23,9.84,2.46-7.07,19.38-7.69,7.69-28.91,17.53-41.83,14.46-10.15-2.46-17.84-8.3-21.84-19.38-8.61,7.69-28.91,23.38-45.21,23.38-4,0-7.69-.92-11.07-3.08-6.15-4.61-9.23-10.46-9.23-16.92ZM1505.68,1960.01c-3.08-.92-7.38-1.54-12-1.54-15.38,0-35.68,5.85-39.06,19.99-.92,3.69.92,7.07,5.54,7.38,14.76-1.84,34.75-14.45,45.52-25.83Z"/>
    <path class="b" d="M1580.1,1945.86c0-2.15,3.08-2.15,6.15-.61,2.77,1.54,4.62,4.61,4.62,6.46l-.31,12c7.69-9.84,30.45-27.68,47.37-24.92,7.07,1.23,11.38,7.69,9.22,10.15-4.3,4.92-8.61,3.08-8.3.62l.31-2.46c-15.38-.31-40.91,18.45-48.29,39.68-.92,2.46-.92,4.31-2.16,13.23.31,4-9.84,0-11.07-4.62-1.23-2.77-1.85-10.76,2.46-49.52Z"/>
    <path class="b" d="M1739.71,2059.04c-4.3-4.92-6.76-12-7.99-18.76-1.54-7.38-2.77-16.91-3.08-27.37-.62-8.61-.92-18.14-.92-27.99,0-8,.31-16.61.31-24.91v-11.07c-6.46,17.22-19.07,45.21-40.6,46.75-5.84,0-11.69-.92-18.76-6.15-7.38-5.84-10.46-12.61-10.46-19.07,0-5.84,2.46-11.69,6.46-15.68,6.15-5.85,15.07-10.15,28.3-10.15,6.15,0,12.3.62,20.6,2.77l2.46.92c6.46-16.91,10.46-32.6,14.15-48.9l.62-11.07c2.16-26.14,8-70.13,8.31-70.74.92-4.61,11.07.92,11.69,5.54-.31,13.84-3.69,50.13-5.23,64.59-.62,6.15-3.08,14.76-3.39,19.99-1.23,15.38-1.85,27.38-2.15,39.06-.62,14.46-.92,28.91-.92,42.75,0,10.15,0,19.68.92,28.6.31,10.15,1.23,19.38,2.77,26.45,1.85,6.46,2.77,10.15,3.69,11.69l.62.62h.31c1.85.92,4.3,3.08,4.92,4.92.92,2.46-.31,3.69-3.69,3.08-3.39-.92-6.77-3.38-8.92-5.84ZM1712.34,1956.01l.31-.61c-4.61-.62-8.92-.92-12.61-.92-13.23,0-20.6,3.38-25.22,8.3-4,4.31-5.53,8.92-5.53,12.92s1.54,7.38,3.69,8.92c2.16,1.84,4.62,2.77,8,2.77,15.07-1.54,24.91-18.45,31.37-31.37Z"/>
    <path class="b" d="M1763.69,1980.31c-.92-2.77-1.54-5.84-1.54-8.92,0-13.54,9.23-27.37,24.3-27.99,9.53,0,18.45,9.22,15.07,18.14-4,9.84-17.22,17.22-27.99,17.22.92,5.85,11.69,15.69,22.45,15.69,28.91,0,50.44-21.53,63.35-35.06,7.08-7.38,5.85-.31,1.54,8.3-8.61,17.84-28.3,32.91-49.52,34.14-18.15.92-41.52-2.46-47.67-21.53ZM1773.23,1971.39c12.92-5.85,21.53-14.15,18.14-17.53-6.46-6.46-18.45,9.84-18.14,17.53Z"/>
    <path class="b" d="M1856.88,1980.61l3.08-30.75c0-2.16,3.08-2.46,6.15-1.23,2.46,1.54,5.23,4.31,4.92,6.15l-.62,10.46c10.46-7.69,32.6-18.76,49.83-16.92,5.84.62,11.38,6.15,11.38,10.76,0,5.23-3.39,16.92.62,22.76,3.07,2.46,6.46,3.38,10.46,3.38,19.07,0,45.83-24.3,55.67-29.22,1.23-.61,2.46,6.15-2.16,12-7.38,9.53-27.37,25.84-48.9,25.84-8.92,0-18.76-3.69-24.3-11.69-3.08-4.62-4-9.84-4-15.38,0-3.38.31-6.76.92-10.46-22.76,2.46-46.13,17.22-51.98,30.14l-.31,7.08c.31,4-10.46,1.23-10.76-3.69-.31-2.46-.62-5.54,0-9.23Z"/>
  </g>
  <g>
    <path class="b" d="M338.2,785l20.82,9.88-2.97,6.26-62.56-29.67c4.41-9.29,8.86-18.68,13.27-27.97,13.27-27.97,54.92-8.22,41.74,19.8l-10.3,21.72ZM332.3,782.2l10.3-21.72c9.28-19.57-20.66-33.77-29.94-14.2l-10.3,21.72,29.94,14.2Z"/>
    <path class="b" d="M369.88,635.86l35.33,23.14c15.64,10.24,16.45,25.44,8.21,38.01-8.24,12.58-22.71,18.24-38.35,7.99l-35.33-23.14,3.79-5.79,35.33,23.14c11.01,7.21,22.72,4.12,29.17-5.72,5.75-8.77,5.46-20.79-6.62-28.7l-35.33-23.14,3.79-5.79Z"/>
    <path class="b" d="M491.4,596.58l-5.92,6.78-34.32.52-11.77,13.49,19.23,16.78-4.55,5.22-52.18-45.52c6.83-7.83,13.59-15.58,20.42-23.41,10.14-11.63,22.77-10.45,31.64-2.86,8.19,7.02,11.41,18.22,2.31,29.71l35.15-.71ZM411.37,592.92l23.11,20.16,15.61-17.89c7.28-8.35,5.88-16.67-.68-22.39-6.56-5.72-15.14-6.12-22.16,1.93l-15.87,18.19Z"/>
    <path class="b" d="M556.21,537.01l-37.29,32.78c-15.21-17.31-30.49-34.69-45.7-52l36.62-32.19,4.31,4.9-31.42,27.62,16.39,18.64,30.01-26.38,4.24,4.83-30.01,26.38,16.45,18.72,32.09-28.21,4.31,4.9Z"/>
    <path class="b" d="M668.65,447.89l-11.53-19.84-16.2-29.01,6.04-3.38,33.76,60.45-3.63,2.02-66.27-26.77,10.16,17.78,17.17,30.74-6.05,3.38-33.76-60.45,3.8-2.12,66.51,27.2Z"/>
    <path class="b" d="M758.75,405.73l-37.48,14.39-.91,17.51-6.83,2.62,4.19-75.75,6.46-2.48,53.79,53.5-6.83,2.62-12.39-12.41ZM721.59,413.22l32.31-12.4-30.26-30.54-2.05,42.94Z"/>
    <path class="b" d="M808.38,342.4l-23.71,5.87-1.57-6.34c19.01-4.7,35.14-8.69,54.14-13.4l1.57,6.34-23.71,5.87,15.06,60.86-6.72,1.66-15.06-60.86Z"/>
    <path class="b" d="M935.76,314.55l4.71,41.97c2.08,18.58-9.1,28.89-24.04,30.56-14.94,1.68-28.53-5.86-30.61-24.44l-4.71-41.97,6.88-.77,4.71,41.97c1.47,13.07,11.32,20.13,23.01,18.82,10.42-1.17,19.49-9.05,17.88-23.41l-4.71-41.97,6.88-.77Z"/>
    <path class="b" d="M1043.64,383.07l-9-.23-22.3-26.09-17.9-.45-.64,25.51-6.92-.17,1.74-69.22c10.38.26,20.67.52,31.05.78,15.43.39,22.58,10.86,22.39,22.53-.17,10.78-6.75,20.41-21.4,20.73l22.98,26.6ZM995.38,319.12l-.77,30.65,23.73.6c11.07.28,16.58-6.11,16.8-14.81.22-8.7-4.95-15.56-15.63-15.83l-24.13-.61Z"/>
    <path class="b" d="M1130.68,378.79l-39.62-6.53-9.63,14.65-7.22-1.19,41.89-63.25,6.83,1.13,19.39,73.35-7.22-1.19-4.42-16.96ZM1094.82,366.46l34.15,5.63-10.68-41.65-23.47,36.02Z"/>
    <path class="b" d="M1204.72,342.02l-18.14,60.03,36.83,11.13-1.89,6.25-43.46-13.13,20.03-66.28,6.63,2Z"/>
    <path class="b" d="M1360.27,405.9c10.71,5.77,17.84,15.68,11.37,27.7-3.19,5.92-9.57,9-16.57,7.81,6.32,6.21,6.76,14.77,3.43,20.95-6.8,12.63-20.1,10.4-31.07,4.49-9.05-4.88-16.89-9.1-25.95-13.98l32.84-60.95,25.95,13.98ZM1310.67,450.4l19.85,10.7c6.97,3.75,17.29,6.5,21.93-2.12,4.46-8.49-1.98-16.34-9.29-20.29-6.88-3.71-13.33-7.18-20.29-10.93l-12.2,22.64ZM1325.88,422.19l20.29,10.93c7.31,3.94,15.44,4.5,19.43-2.9,4.41-8.19-.88-14.63-8.37-18.67l-19.85-10.7-11.49,21.33Z"/>
    <path class="b" d="M1423.5,529.66l-40.19-29.15c13.53-18.65,27.12-37.39,40.65-56.04l39.47,28.63-3.83,5.28-33.87-24.57-14.57,20.1,32.34,23.46-3.78,5.2-32.34-23.46-14.64,20.17,34.58,25.09-3.83,5.28Z"/>
    <path class="b" d="M1499.55,576.25l-29.07-27.71-16.21,6.69-5.3-5.05,70.25-28.68,5.01,4.78-25.29,71.54-5.3-5.05,5.9-16.51ZM1476.86,545.88l25.05,23.89,14.63-40.44-39.69,16.55Z"/>
    <path class="b" d="M1609.44,622.48l-33.03,26.34c-14.62,11.66-29.31,7.68-38.69-4.08-9.38-11.76-10.23-27.27,4.39-38.93l33.04-26.34,4.32,5.42-33.04,26.34c-10.29,8.2-11.02,20.3-3.68,29.51,6.54,8.2,18.05,11.68,29.34,2.68l33.04-26.34,4.32,5.42Z"/>
    <path class="b" d="M1641.94,683.41l-12.61-20.92,5.59-3.37c10.11,16.77,18.68,31.01,28.79,47.78l-5.59,3.37-12.61-20.92-53.71,32.37-3.57-5.93,53.71-32.37Z"/>
    <path class="b" d="M1662.01,782.34l40.7,6.46,3.28,7.42-.18.08-48.55-8.08-25.52,11.27-2.8-6.33,25.52-11.27,26.89-40.96.18-.08,3.24,7.33-22.76,34.17Z"/>
  </g>
  <g>
    <path class="b" d="M261.04,1164.16c.4-15.13,14.44-19.68,27.1-19.68s26.7,5.24,26.7,20.47-13.94,19.97-26.8,19.97c-9,0-20.87,2.57-20.87,13.35v9.89h47.27v6.43h-53.7v-16.22c0-15.52,14.14-19.58,27.19-19.58,8.01,0,20.47-2.96,20.47-13.75s-11.17-14.53-20.27-14.64c-8.8,0-20.17,2.57-20.27,13.75h-6.82Z"/>
    <path class="b" d="M337.1,1172.47c0-37.58,54.68-37.48,54.68,0v15.03c0,37.48-54.68,37.58-54.68,0v-15.03ZM343.82,1187.6c0,28.87,41.14,28.87,41.14,0v-15.23c0-28.68-41.14-28.88-41.14,0v15.23Z"/>
  </g>
  <g>
    <path class="b" d="M1613.96,1164.61c.4-15.13,14.44-19.68,27.1-19.68s26.7,5.24,26.7,20.47-13.94,19.97-26.8,19.97c-9,0-20.87,2.57-20.87,13.35v9.89h47.27v6.43h-53.7v-16.22c0-15.52,14.14-19.58,27.19-19.58,8.01,0,20.47-2.96,20.47-13.75s-11.17-14.53-20.27-14.64c-8.8,0-20.17,2.57-20.27,13.75h-6.82Z"/>
    <path class="b" d="M1688.63,1209.4h13.15v-55.57l-12.56,3.16v-5.73l18.99-5.44v63.59h13.06v5.64h-32.63v-5.64Z"/>
  </g>
</svg>